<svg width="162" height="175" viewBox="0 0 162 175" fill="none" xmlns="http://www.w3.org/2000/svg">
<path d="M79.7152 167.473L83.6175 167.082L83.9656 151.844L78.2058 152.421L79.7152 167.473Z" fill="#9E616A"/>
<path d="M79.0989 171.356L91.6823 170.095L91.6663 169.935C91.536 168.636 90.8952 167.442 89.8846 166.616C88.8741 165.79 87.5766 165.398 86.2777 165.528L86.2773 165.528L78.5918 166.299L79.0989 171.356Z" fill="#100F1B"/>
<path d="M61.9085 171.224C69.2805 171.224 75.278 159.466 75.278 145.014C75.2972 140.941 74.7934 136.882 73.7792 132.937C73.6404 132.409 73.4902 131.886 73.3321 131.38C70.8877 123.506 66.6172 118.804 61.9085 118.804C54.5366 118.804 48.539 130.562 48.539 145.014C48.539 159.466 54.5366 171.224 61.9085 171.224ZM61.9085 119.444C66.2562 119.444 70.3993 124.09 72.7212 131.571C72.8766 132.067 73.0241 132.581 73.16 133.098C74.1604 136.99 74.6572 140.994 74.6382 145.012C74.6382 159.114 68.9277 170.585 61.9085 170.585C54.8894 170.585 49.1788 159.114 49.1788 145.014C49.1788 130.914 54.8893 119.444 61.9085 119.444Z" fill="#666363" fill-opacity="0.67"/>
<path d="M78.8404 171.701L93.5923 170.193L93.5334 169.78L78.7815 171.287L78.8404 171.701Z" fill="#A0616A"/>
<path d="M58.6721 160.545C61.4731 160.545 63.5854 153.868 63.5854 145.014C63.5854 136.16 61.4731 129.483 58.6721 129.483C55.871 129.483 53.7587 136.16 53.7587 145.014C53.7587 153.868 55.871 160.545 58.6721 160.545ZM58.6721 130.123C60.7273 130.123 62.9456 135.816 62.9456 145.014C62.9456 154.212 60.7273 159.905 58.6721 159.905C56.6168 159.905 54.3985 154.212 54.3985 145.014C54.3985 135.816 56.6168 130.123 58.6721 130.123Z" fill="#666363" fill-opacity="0.67"/>
<path d="M58.1501 148.508C57.1699 148.508 56.3753 146.944 56.3753 145.014C56.3753 143.085 57.1699 141.521 58.1501 141.521C59.1302 141.521 59.9248 143.085 59.9248 145.014C59.9248 146.944 59.1302 148.508 58.1501 148.508Z" fill="#010418"/>
<path d="M31.2159 171.548C38.8181 171.548 45.0029 159.603 45.0029 144.92C45.0211 140.864 44.5239 136.822 43.5232 132.892C43.3723 132.316 43.2129 131.759 43.0488 131.234C40.5363 123.13 36.1127 118.292 31.2159 118.292C23.6137 118.292 17.4288 130.237 17.4288 144.92C17.4288 159.603 23.6137 171.548 31.2159 171.548ZM31.2159 118.932C35.7488 118.932 40.0488 123.719 42.4378 131.424C42.5992 131.941 42.7559 132.488 42.9037 133.052C43.8908 136.93 44.3812 140.917 44.3631 144.918C44.3631 159.25 38.4653 170.908 31.2159 170.908C23.9664 170.908 18.0686 159.25 18.0686 144.92C18.0686 130.59 23.9664 118.932 31.2159 118.932Z" fill="#666363"/>
<path d="M27.9797 160.451C30.7808 160.451 32.8931 153.774 32.8931 144.92C32.8931 136.066 30.7808 129.39 27.9797 129.39C25.1786 129.39 23.0663 136.066 23.0663 144.92C23.0663 153.774 25.1786 160.451 27.9797 160.451ZM27.9797 130.029C30.0349 130.029 32.2532 135.723 32.2532 144.92C32.2532 154.118 30.0349 159.811 27.9797 159.811C25.9245 159.811 23.7061 154.118 23.7061 144.92C23.7061 135.723 25.9245 130.029 27.9797 130.029Z" fill="#666363"/>
<path d="M27.4577 148.414C26.4775 148.414 25.6829 146.85 25.6829 144.92C25.6829 142.991 26.4775 141.427 27.4577 141.427C28.4378 141.427 29.2324 142.991 29.2324 144.92C29.2324 146.85 28.4378 148.414 27.4577 148.414Z" fill="#010418"/>
<path d="M0.319885 171.679H122.207C122.292 171.679 122.374 171.645 122.434 171.585C122.494 171.525 122.527 171.444 122.527 171.359C122.527 171.274 122.494 171.193 122.434 171.133C122.374 171.073 122.292 171.039 122.207 171.039H0.319885C0.235039 171.039 0.153656 171.073 0.0936584 171.133C0.0336609 171.193 -3.05176e-05 171.274 -3.05176e-05 171.359C-3.05176e-05 171.444 0.0336609 171.525 0.0936584 171.585C0.153656 171.645 0.235039 171.679 0.319885 171.679Z" fill="white"/>
<path d="M77.8555 48.654C78.0245 49.0929 78.0952 49.5635 78.0626 50.0326C78.03 50.5018 77.8949 50.9581 77.6669 51.3695C77.4389 51.7808 77.1234 52.1371 76.7428 52.4133C76.3622 52.6896 75.9256 52.879 75.4639 52.9682L73.8341 64.2836L69.3916 60.3394L71.6203 50.1989C71.5218 49.4133 71.7149 48.6187 72.163 47.9659C72.6111 47.3131 73.2831 46.8474 74.0517 46.657C74.8203 46.4665 75.632 46.5646 76.3331 46.9327C77.0341 47.3007 77.5758 47.9132 77.8555 48.654Z" fill="#9E616A"/>
<path d="M62.0129 93.1394L33.4081 93.0352V104.304L62.0129 105.458V93.1394Z" fill="#666363" fill-opacity="0.67"/>
<path d="M68.5322 170.474L72.4141 169.914L72.1009 154.674L66.3715 155.501L68.5322 170.474Z" fill="#9E616A"/>
<path d="M68.0852 174.38L80.6021 172.574L80.5792 172.416C80.3927 171.124 79.7006 169.959 78.6552 169.177C77.6097 168.395 76.2965 168.06 75.0044 168.247L67.3593 169.35L68.0852 174.38Z" fill="#100F1B"/>
<path d="M86.4422 131.36L86.8588 131.337L85.5954 108.381H59.7159V108.799H85.2L86.4422 131.36Z" fill="#666363" fill-opacity="0.67"/>
<path d="M83.7099 171.609L83.7794 172.021L66.2199 174.983L66.1504 174.571L83.7099 171.609Z" fill="#A0616A"/>
<path d="M42.334 131.382C42.4906 131.885 42.6381 132.399 42.7766 132.923L43.213 132.971L56.7929 134.48L87.9032 131.349L55.5402 129.678L42.7432 131.33L42.334 131.382Z" fill="#666363" fill-opacity="0.67"/>
<path d="M49.4478 53.9861C49.4478 53.9861 53.9699 52.5442 56.877 58.3115C59.7841 64.0789 64.3062 70.4229 64.3062 70.4229L61.7221 70.9996C61.7221 70.9996 61.0761 66.9625 59.461 66.3858L60.107 71.5764C60.107 71.5764 40.7265 77.6321 32.0054 70.9996L32.3283 68.9811C32.3283 68.9811 31.0363 69.2695 31.0363 70.9996L30.0673 70.1346C30.0673 70.1346 31.0363 68.4044 33.9434 66.0974C35.8515 64.5833 36.5071 61.7026 36.7325 59.9015C36.9159 58.3665 37.5947 56.9331 38.666 55.8185C40.598 53.8196 44.1182 51.6952 49.4478 53.9861Z" fill="#010418"/>
<path d="M65.9171 116.897L66.548 119.144C66.548 119.144 79.2602 116.061 80.9163 124.034C82.5724 132.006 84.8436 156.682 84.8436 156.682L78.4244 157.999L72.3284 131.1L47.6373 125.713L49.2539 111.779L65.9171 116.897Z" fill="#100F1B"/>
<path d="M55.227 120.596C55.227 120.596 72.3481 117.046 73.6009 125.607C74.8536 134.167 72.9745 150.453 72.7657 150.871C72.5569 151.288 73.6009 159.014 73.6009 159.014L66.0843 160.058C66.0843 160.058 61.2821 137.299 63.37 131.453L49.2431 130.579C44.3666 130.277 40.3828 126.425 40.1023 121.547C39.995 119.68 40.4624 117.986 42.0731 117.046C47.0841 114.123 56.271 114.123 56.271 114.123L55.227 120.596Z" fill="#100F1B"/>
<path d="M47.084 74.8159C42.9327 74.8159 39.5674 71.4506 39.5674 67.2993C39.5674 63.148 42.9327 59.7827 47.084 59.7827C51.2353 59.7827 54.6006 63.148 54.6006 67.2993C54.6006 71.4506 51.2353 74.8159 47.084 74.8159Z" fill="#A0616A"/>
<path d="M54.1832 79.2276L58.9854 78.6281L62.5161 86.9633C62.5161 86.9633 67.4416 117.568 66.1888 117.986C65.4858 118.234 64.7407 118.34 63.9965 118.299L40.293 119.533C40.293 119.533 39.2356 114.765 39.6532 111.215C40.0708 107.666 35.1829 88.2327 35.1829 88.2327L36.1225 79.3589L40.1221 79.2854L43.0013 77.046L51.0141 77.021L54.1832 79.2276Z" fill="#078D0C"/>
<path d="M58.7766 79.672L58.9852 78.4192L64.8317 71.3203L70.8336 51.4526L76.592 57.531L70.4689 76.9575L62.1172 87.6062L58.7766 79.672Z" fill="#078D0C"/>
<path d="M56.959 68.1983C56.959 68.1983 54.3749 64.6452 52.1139 63.9992C49.8528 63.3532 49.5298 60.1231 49.5298 60.1231C49.5298 60.1231 43.7156 66.5833 40.1626 66.9063C36.6095 67.2293 39.8395 59.1541 39.8395 59.1541L46.2997 57.5391L52.4369 58.1851L57.282 61.4152L56.959 68.1983Z" fill="#010418"/>
<path d="M32.7814 119.037L32.9836 110.469H52.4139L53.0349 133.442L53.4524 133.431L52.8205 110.052H32.5799L32.5732 110.254L32.3643 119.023L32.7814 119.037Z" fill="#666363" fill-opacity="0.67"/>
<path d="M33.1991 107.337H33.6169V91.3999L26.877 93.3565L26.9938 93.7573L33.1991 91.9559V107.337Z" fill="#666363" fill-opacity="0.67"/>
<path d="M30.2761 91.0518L25.8914 92.722L26.7267 95.0187L30.2761 93.557V91.0518Z" fill="#010418"/>
<path d="M47.606 109.008V112.348H35.1661V109.23L47.606 109.008Z" fill="#010418"/>
<path d="M79.5515 107.337V110.678H67.1113V107.559L79.5515 107.337Z" fill="#010418"/>
<path d="M56.7932 99.2313H56.8946V96.451C56.8946 96.0242 57.0642 95.6149 57.366 95.3131C57.6677 95.0113 58.077 94.8418 58.5038 94.8418H64.3943C64.821 94.8418 65.2303 95.0113 65.5321 95.3131C65.8339 95.6149 66.0034 96.0242 66.0034 96.451V111.704C66.0034 112.131 65.8339 112.54 65.5321 112.842C65.2303 113.144 64.821 113.313 64.3943 113.313H58.5038C58.077 113.313 57.6677 113.144 57.3659 112.842C57.0642 112.54 56.8946 112.131 56.8946 111.704V101.21H56.7931L56.7932 99.2313Z" fill="#010418"/>
<path d="M61.3981 100.566C60.8537 100.566 60.4125 100.124 60.4125 99.5799C60.4125 99.0355 60.8537 98.5942 61.3981 98.5942C61.9425 98.5942 62.3838 99.0355 62.3838 99.5799C62.3838 100.124 61.9425 100.566 61.3981 100.566Z" fill="#D0CDE1"/>
<path opacity="0.15" d="M37.7929 89.7988L38.4193 101.7L47.606 103.579L39.2543 100.238L37.7929 89.7988Z" fill="black"/>
<path d="M59.5334 110.796C59.1197 111.02 58.662 111.15 58.1925 111.178C57.723 111.206 57.2532 111.13 56.8161 110.956C56.379 110.783 55.9852 110.516 55.6626 110.173C55.34 109.831 55.0963 109.422 54.9487 108.976L43.5179 108.806L46.8615 103.896L57.2038 104.81C57.9704 104.612 58.7831 104.701 59.4879 105.062C60.1926 105.423 60.7405 106.03 61.0276 106.768C61.3148 107.506 61.3213 108.324 61.0459 109.066C60.7705 109.809 60.2323 110.424 59.5334 110.796Z" fill="#9E616A"/>
<path d="M38.4193 80.8206L36.5402 79.3591C36.5402 79.3591 33.4083 77.6887 32.7819 83.5349C32.1555 89.3812 27.5621 108.799 32.1555 109.008C36.7489 109.217 53.8785 109.677 53.8785 109.677L54.5183 103.919L37.5841 102.326L38.4193 80.8206Z" fill="#078D0C"/>
<g filter="url(#filter0_d_1138_5162)">
<path d="M157.984 21.7536C157.877 23.2925 157.423 24.7873 156.658 26.1269C155.045 28.9591 152.28 31.0096 149.301 32.2285C145.58 33.7513 141.432 33.7982 137.483 33.4586C133.815 33.1433 130.184 32.4122 126.502 32.2616C123.655 32.1705 120.805 32.2385 117.965 32.4652C112.456 32.8562 106.97 33.5817 101.519 34.4613C100.043 34.6965 98.57 34.9493 97.0999 35.2196C96.961 35.2319 96.8236 35.2574 96.6895 35.2959C96.6628 35.3068 96.6199 35.2983 96.5955 35.3137C96.5511 35.3416 96.775 35.2428 96.6392 35.355C96.4501 35.5534 96.2815 35.7704 96.136 36.0026L94.1228 38.5933C93.5455 39.3363 93.0097 40.2389 92.2636 40.8245C91.7375 41.2309 91.1028 41.4725 90.4396 41.5187C89.7764 41.5649 89.1144 41.4138 88.537 41.0842C87.9338 40.7031 87.4528 40.1567 87.1512 39.5101C86.6881 38.6608 86.1357 37.8634 85.5033 37.1314C83.1082 34.3374 79.7796 32.6189 76.9955 30.268C75.647 29.1759 74.496 27.8603 73.5929 26.3785C72.8225 25.0376 72.3434 23.5494 72.1871 22.0108C71.8537 18.8864 72.8124 15.7001 74.425 13.0421C76.179 10.1864 78.6988 7.88006 81.6981 6.38493C85.0675 4.66833 88.796 3.83217 92.5334 3.4155C96.5014 2.9731 100.516 2.97448 104.503 3.01915C108.978 3.06896 113.445 3.26575 117.904 3.60951C122.368 3.95509 126.816 4.44631 131.245 5.08317C135.496 5.69427 139.798 6.33121 143.958 7.4125C147.634 8.36773 151.299 9.86081 154.044 12.5661C156.484 14.9714 158.181 18.263 157.984 21.7536Z" fill="#D8E6EE"/>
</g>
<path d="M137.44 22.7477C137.621 22.7395 137.799 22.6938 137.963 22.6134C138.126 22.5331 138.27 22.4198 138.388 22.2807C138.505 22.1417 138.592 21.9799 138.644 21.8055C138.695 21.6311 138.71 21.4479 138.688 21.2674L138.593 20.5239C138.575 20.3813 138.592 20.2364 138.643 20.1018C138.693 19.9671 138.775 19.8467 138.882 19.7509L139.441 19.2519C139.624 19.0885 139.757 18.8772 139.826 18.642C139.895 18.4067 139.897 18.1567 139.832 17.9204C139.766 17.6842 139.636 17.4709 139.455 17.3049C139.275 17.1389 139.051 17.0267 138.81 16.9809L138.074 16.8411C137.933 16.8143 137.801 16.7536 137.688 16.6643C137.576 16.5749 137.487 16.4595 137.429 16.3281L137.126 15.6418C137.027 15.4175 136.868 15.2253 136.665 15.087C136.463 14.9487 136.226 14.8698 135.981 14.8591C135.736 14.8485 135.493 14.9066 135.279 15.0269C135.065 15.1472 134.89 15.3248 134.772 15.5397L134.411 16.1967C134.342 16.3228 134.244 16.4302 134.124 16.5097C134.004 16.5891 133.866 16.6382 133.723 16.6527L132.978 16.728C132.734 16.7527 132.502 16.8451 132.308 16.9949C132.113 17.1447 131.965 17.3458 131.879 17.5755C131.793 17.8052 131.774 18.0544 131.822 18.2948C131.87 18.5352 131.985 18.7572 132.153 18.9358L132.666 19.4815C132.765 19.5861 132.837 19.7131 132.875 19.8515C132.913 19.99 132.918 20.1357 132.887 20.2761L132.729 21.0089C132.677 21.2485 132.693 21.4979 132.776 21.7288C132.858 21.9596 133.004 22.1628 133.195 22.3154C133.387 22.4679 133.618 22.5638 133.862 22.592C134.105 22.6203 134.352 22.5799 134.573 22.4754L135.251 22.156C135.381 22.0944 135.524 22.0655 135.668 22.0717C135.811 22.0778 135.951 22.1189 136.076 22.1914L136.723 22.5686C136.94 22.6954 137.189 22.7576 137.44 22.7477Z" fill="#F2FFFF"/>
<path d="M126.887 22.4408C127.221 22.4254 127.537 22.2842 127.772 22.0456C127.914 21.8954 128.019 21.7149 128.081 21.5178C128.143 21.3207 128.159 21.1121 128.128 20.9078L128.042 20.2257C128.023 20.0804 128.04 19.9328 128.092 19.7957C128.143 19.6585 128.227 19.5359 128.336 19.4383L128.854 18.9754C129.007 18.845 129.128 18.6821 129.21 18.4987C129.292 18.3153 129.332 18.1159 129.327 17.9151C129.316 17.6176 129.204 17.3328 129.01 17.1073C128.815 16.8819 128.55 16.7291 128.258 16.674L127.53 16.5358C127.386 16.5085 127.251 16.4466 127.136 16.3554C127.022 16.2643 126.931 16.1466 126.872 16.0126L126.601 15.3967C126.504 15.163 126.344 14.9605 126.14 14.8117C125.935 14.6628 125.693 14.5732 125.441 14.5529C125.194 14.5389 124.948 14.5953 124.731 14.7157C124.515 14.8361 124.337 15.0154 124.219 15.2329L123.863 15.8822C123.792 16.0107 123.692 16.1202 123.569 16.2011C123.447 16.282 123.307 16.332 123.161 16.3467L122.47 16.4165C122.27 16.4322 122.076 16.4924 121.902 16.5927C121.727 16.6931 121.578 16.831 121.464 16.9965C121.298 17.2439 121.222 17.54 121.247 17.8366C121.271 18.1331 121.396 18.4125 121.6 18.6289L122.108 19.1683C122.208 19.2749 122.281 19.4043 122.32 19.5452C122.359 19.6862 122.363 19.8346 122.332 19.9776L122.186 20.6542C122.139 20.8495 122.136 21.0528 122.178 21.2494C122.219 21.4459 122.303 21.6309 122.425 21.7909C122.608 22.026 122.866 22.1915 123.156 22.2601C123.446 22.3288 123.751 22.2965 124.021 22.1685L124.691 21.8524C124.824 21.7901 124.969 21.7608 125.115 21.7672C125.261 21.7735 125.404 21.8153 125.53 21.8889L126.17 22.2617C126.387 22.3885 126.636 22.4507 126.887 22.4408Z" fill="#F2FFFF"/>
<path d="M116.307 22.3961C116.488 22.3879 116.666 22.3422 116.829 22.2618C116.993 22.1815 117.137 22.0682 117.255 21.9292C117.372 21.7901 117.459 21.6283 117.511 21.4539C117.562 21.2795 117.577 21.0963 117.555 20.9158L117.46 20.1723C117.442 20.0297 117.459 19.8849 117.51 19.7502C117.56 19.6156 117.642 19.4952 117.749 19.3993L118.308 18.9003C118.491 18.737 118.624 18.5257 118.693 18.2904C118.762 18.0551 118.764 17.8052 118.698 17.5689C118.633 17.3326 118.502 17.1194 118.322 16.9534C118.142 16.7873 117.918 16.6751 117.677 16.6294L116.941 16.4895C116.8 16.4627 116.667 16.4021 116.555 16.3127C116.443 16.2233 116.353 16.108 116.295 15.9765L115.993 15.2903C115.894 15.0659 115.735 14.8738 115.532 14.7354C115.33 14.5971 115.093 14.5182 114.848 14.5076C114.603 14.497 114.36 14.5551 114.146 14.6753C113.932 14.7956 113.757 14.9733 113.639 15.1882L113.278 15.8451C113.209 15.9713 113.111 16.0787 112.991 16.1581C112.871 16.2376 112.733 16.2866 112.59 16.3011L111.845 16.3764C111.601 16.4011 111.369 16.4936 111.175 16.6433C110.98 16.7931 110.832 16.9942 110.746 17.2239C110.66 17.4537 110.641 17.7028 110.689 17.9432C110.737 18.1836 110.852 18.4056 111.02 18.5842L111.533 19.13C111.632 19.2345 111.704 19.3615 111.742 19.5C111.78 19.6384 111.785 19.7841 111.754 19.9245L111.596 20.6574C111.544 20.897 111.56 21.1463 111.643 21.3772C111.725 21.6081 111.87 21.8112 112.062 21.9638C112.254 22.1164 112.485 22.2122 112.729 22.2405C112.972 22.2687 113.219 22.2283 113.44 22.1238L114.118 21.8044C114.248 21.7429 114.391 21.7139 114.535 21.7201C114.678 21.7263 114.818 21.7674 114.943 21.8399L115.59 22.217C115.807 22.3438 116.056 22.406 116.307 22.3961Z" fill="#F2FFFF"/>
<path opacity="0.74" d="M106.015 22.1173C106.197 22.1091 106.375 22.0634 106.538 21.983C106.701 21.9027 106.846 21.7894 106.963 21.6504C107.081 21.5113 107.168 21.3495 107.219 21.1751C107.271 21.0007 107.286 20.8175 107.264 20.637L107.169 19.8935C107.151 19.7509 107.168 19.6061 107.218 19.4714C107.269 19.3368 107.351 19.2164 107.458 19.1205L108.016 18.6215C108.199 18.4581 108.333 18.2469 108.402 18.0116C108.471 17.7763 108.473 17.5264 108.407 17.2901C108.342 17.0538 108.211 16.8406 108.031 16.6745C107.85 16.5085 107.627 16.3963 107.386 16.3506L106.65 16.2107C106.509 16.1839 106.376 16.1233 106.264 16.0339C106.151 15.9445 106.062 15.8291 106.004 15.6977L105.702 15.0115C105.603 14.7871 105.443 14.5949 105.241 14.4566C105.038 14.3183 104.801 14.2394 104.556 14.2288C104.311 14.2182 104.068 14.2763 103.855 14.3965C103.641 14.5168 103.465 14.6944 103.347 14.9094L102.987 15.5663C102.918 15.6924 102.819 15.7999 102.699 15.8793C102.58 15.9588 102.442 16.0078 102.299 16.0223L101.554 16.0976C101.31 16.1223 101.078 16.2148 100.883 16.3645C100.689 16.5143 100.541 16.7154 100.455 16.9451C100.369 17.1749 100.349 17.424 100.398 17.6644C100.446 17.9048 100.561 18.1268 100.729 18.3054L101.242 18.8512C101.341 18.9557 101.412 19.0827 101.451 19.2212C101.489 19.3596 101.493 19.5053 101.463 19.6457L101.304 20.3786C101.253 20.6182 101.269 20.8675 101.351 21.0984C101.434 21.3292 101.579 21.5324 101.771 21.685C101.963 21.8376 102.194 21.9334 102.437 21.9617C102.681 21.9899 102.927 21.9495 103.149 21.845L103.827 21.5256C103.957 21.4641 104.1 21.4351 104.243 21.4413C104.387 21.4475 104.527 21.4886 104.651 21.5611L105.299 21.9382C105.516 22.065 105.764 22.1272 106.015 22.1173Z" fill="#F3C72A"/>
<path opacity="0.74" d="M96.2472 21.7037C96.084 21.7841 95.906 21.8298 95.7242 21.838C95.4733 21.8479 95.2247 21.7857 95.0079 21.6589L94.3603 21.2818C94.2361 21.2093 94.0961 21.1682 93.9525 21.162C93.8088 21.1558 93.6658 21.1848 93.5359 21.2463L92.8581 21.5657C92.6364 21.6702 92.3898 21.7107 92.1463 21.6824C91.9027 21.6541 91.672 21.5583 91.4801 21.4057C91.2882 21.2532 91.1428 21.05 91.0603 20.8191C90.9779 20.5882 90.9616 20.3389 91.0135 20.0993L91.1718 19.3664C91.2023 19.226 91.1982 19.0803 91.1597 18.9419C91.1213 18.8034 91.0497 18.6765 90.9512 18.5719L90.4378 18.0262C90.2698 17.8476 90.1551 17.6255 90.1067 17.3851C90.0583 17.1447 90.0781 16.8956 90.1639 16.6659C90.2498 16.4361 90.3982 16.235 90.5923 16.0852C90.7865 15.9355 91.0187 15.843 91.2627 15.8183L92.008 15.743C92.1511 15.7286 92.2885 15.6795 92.4084 15.6C92.5283 15.5206 92.627 15.4132 92.6961 15.287L93.0564 14.6301C93.1743 14.4152 93.3501 14.2375 93.5638 14.1172C93.7774 13.997 94.0205 13.9389 94.2654 13.9495C94.5104 13.9601 94.7475 14.039 94.9499 14.1773C95.1524 14.3157 95.3121 14.5078 95.411 14.7322L95.7132 15.4184C95.7712 15.5499 95.8603 15.6652 95.9727 15.7546C96.0852 15.844 96.2177 15.9046 96.3588 15.9314L97.0951 16.0713C97.336 16.117 97.5593 16.2292 97.7398 16.3952C97.9202 16.5613 98.0506 16.7745 98.1162 17.0108C98.1818 17.2471 98.1799 17.497 98.1109 17.7323C98.0418 17.9676 97.9083 18.1788 97.7254 18.3422L97.167 18.8412C97.0598 18.937 96.9775 19.0575 96.9272 19.1921C96.8769 19.3268 96.86 19.4716 96.8781 19.6142L96.9725 20.3577C96.9951 20.5382 96.9801 20.7214 96.9285 20.8958C96.8768 21.0702 96.7896 21.232 96.6724 21.3711C96.5551 21.5101 96.4103 21.6234 96.2472 21.7037Z" fill="#F3C72A"/>
<defs>
<filter id="filter0_d_1138_5162" x="68.1211" y="0" width="93.8789" height="46.5269" filterUnits="userSpaceOnUse" color-interpolation-filters="sRGB">
<feFlood flood-opacity="0" result="BackgroundImageFix"/>
<feColorMatrix in="SourceAlpha" type="matrix" values="0 0 0 0 0 0 0 0 0 0 0 0 0 0 0 0 0 0 127 0" result="hardAlpha"/>
<feOffset dy="1"/>
<feGaussianBlur stdDeviation="2"/>
<feComposite in2="hardAlpha" operator="out"/>
<feColorMatrix type="matrix" values="0 0 0 0 0.745833 0 0 0 0 0.661927 0 0 0 0 0.661927 0 0 0 0.25 0"/>
<feBlend mode="normal" in2="BackgroundImageFix" result="effect1_dropShadow_1138_5162"/>
<feBlend mode="normal" in="SourceGraphic" in2="effect1_dropShadow_1138_5162" result="shape"/>
</filter>
</defs>
</svg>
