<svg width="672" height="358" viewBox="0 0 672 358" fill="none" xmlns="http://www.w3.org/2000/svg">
<path d="M336 358C521.568 358 672 352.681 672 346.119C672 339.558 521.568 334.238 336 334.238C150.432 334.238 0 339.558 0 346.119C0 352.681 150.432 358 336 358Z" fill="#E1B69A"/>
<path d="M87.6294 321.766L88.5254 331.845L89.238 340.061L89.9413 349.438H136.931L135.139 344.509C134.536 342.903 133.703 341.407 132.681 340.059C130.495 337.18 127.415 334.965 123.819 333.783L122.216 333.267C120.788 332.787 119.416 332.177 118.137 331.421C118.02 331.365 117.902 331.31 117.784 331.236C116.583 330.535 115.477 329.723 114.447 328.817C112.226 326.861 110.421 324.48 109.209 321.766H87.6294Z" fill="#AA6747"/>
<path d="M88.5254 331.845L89.238 340.061L89.9413 349.438H136.931L135.139 344.509C134.536 342.903 133.703 341.407 132.681 340.06C130.495 337.18 127.415 334.965 123.819 333.783L122.216 333.267C120.788 332.787 119.416 332.177 118.138 331.421L114.33 344.786H100.022C97.7148 337.652 92.881 332.399 88.5254 331.845Z" fill="#602D13"/>
<path d="M95.5026 172.312L104.01 232.716L109.149 321.766H87.6293C84.8659 297.778 71.734 272.03 78.2054 237.268L54.7988 175.835L95.5026 172.312Z" fill="#AA6747"/>
<path d="M75.1916 168.045L72.8959 236.214C72.8959 236.214 47.0278 314.982 51.727 324.086H26.0991C32.6842 296.167 25.1881 273.67 44.55 234.046L36.4898 183.209L75.1916 168.045Z" fill="#CE8E68"/>
<path d="M65.0657 26.6758C45.713 31.7264 46.1134 44.234 46.6949 55.7844C47.2763 67.3347 42.8174 71.0853 42.8174 71.0853L65.0657 70.5227V26.6758Z" fill="#824D35"/>
<path d="M96.6352 78.6427C104.244 85.7272 118.122 114.616 129.355 139.749L120.977 139.633C108.406 139.459 97.2051 132.029 92.6718 120.859L79.9682 89.5519C78.4931 86.3031 78.9701 82.5491 81.2169 79.7293C84.9668 75.0225 92.1995 74.514 96.6352 78.6427Z" fill="#CE8E68"/>
<path d="M96.5125 141.532C96.3663 144.975 96.1586 148.429 95.9021 151.86L64.0558 151.616L44.0417 151.453L53.1023 135.613L53.1139 135.602L56.8753 129.019C56.8753 129.019 48.3404 115.144 38.5347 99.7105C37.8999 98.7223 37.4229 97.6987 37.1061 96.6629C34.6155 88.9406 40.0249 80.4622 49.0113 79.5425L53.3704 79.1357L89.1487 75.7631C92.1766 75.4834 94.8518 77.6003 95.0955 80.4854C95.3148 83.1837 95.5957 86.8238 95.8522 91.1735C96.1945 96.5701 96.5114 103.049 96.7064 110.201C96.8039 113.783 96.8654 117.527 96.877 121.39C96.8886 121.448 96.8886 121.518 96.877 121.588C96.9164 128.018 96.8178 134.752 96.5125 141.532Z" fill="#0458AB"/>
<path d="M91.4014 87.2075C113.459 105.619 108.056 116.492 94.615 122.493L91.4014 87.2075Z" fill="#0458AB"/>
<path d="M104.511 229.832L53.7616 230.693H53.75L38.9259 230.949C38.9259 230.949 17.3856 174.517 53.1024 135.613L53.114 135.602L65.972 137.148L96.4511 140.801L96.5126 141.534L104.511 229.832Z" fill="#0458AB"/>
<path d="M106.331 108.967C106.477 116.085 100.322 119.969 96.879 121.586C95.694 122.145 94.8271 122.424 94.6565 122.482C94.6321 122.494 94.6205 122.494 94.6205 122.494L70.0279 125.913L65.974 137.148L62.0547 148.034C62.0547 148.034 62.8242 149.36 64.0579 151.617C70.6766 163.701 90.7152 202.361 77.1236 204.769C61.0055 207.63 49.1235 185.904 49.1235 185.904C49.1235 185.904 45.2031 209.712 53.7635 230.694H53.7519L38.9279 230.949C38.9279 230.949 17.3876 174.518 53.1043 135.614L53.1159 135.603L56.8774 129.02C56.8774 129.02 48.3425 115.145 38.5368 99.7116C37.9019 98.7234 37.4249 97.6997 37.1081 96.664L53.3736 79.1367L70.6894 86.0455L61.2017 100.2L64.254 111.842C73.3634 112.971 84.8658 111.901 93.5481 110.679C94.6472 110.528 95.7091 110.365 96.7107 110.203C102.45 109.308 106.321 108.47 106.321 108.47C106.331 108.641 106.331 108.804 106.331 108.967Z" fill="#04247C"/>
<path d="M37.8037 87.373C33.0117 96.4218 29.819 108.356 27.7334 135.6L51.0471 137.193L57.2805 92.5562C57.5718 89.0278 55.8438 85.6232 52.7601 83.6478C47.6141 80.3493 40.5961 82.098 37.8037 87.373Z" fill="#CE8E68"/>
<path d="M53.3711 79.1336C68.9368 93.0208 82.02 93.5856 82.02 93.5856C82.02 93.5856 86.4185 85.1647 86.0483 76.0562L53.3711 79.1336Z" fill="#CE8E68"/>
<path d="M27.7334 135.6C38.189 158.599 78.1837 176.336 78.1837 176.336L79.7818 163.585L50.3855 128.031L27.7334 135.6Z" fill="#CE8E68"/>
<path d="M72.7343 184.315L80.1295 189.111L73.2775 196.456C72.2167 197.592 70.4352 197.802 69.1156 196.946C67.7961 196.091 67.3481 194.435 68.07 193.079L72.7343 184.315Z" fill="#AA6747"/>
<path d="M53.7589 174.155C51.707 174.155 49.6725 173.942 47.6972 173.517C44.3791 172.802 42.2796 171.283 41.7817 169.239C41.379 167.578 42.1264 166.004 42.8251 164.975C44.6716 162.256 48.0454 160.372 51.8497 159.934C55.0425 159.567 58.5091 160.137 62.1603 161.63L61.912 162.181L62.1696 161.634C64.5476 162.607 67.8042 163.938 69.7459 165.782C70.7219 166.709 70.7381 167.581 70.5791 168.148C69.8549 170.737 63.8315 172.544 61.2771 173.202C58.8051 173.837 56.2704 174.155 53.7589 174.155ZM53.7601 161.026C53.1635 161.026 52.5786 161.059 52.0029 161.126C48.5653 161.52 45.5304 163.204 43.8847 165.626C43.4205 166.309 42.6905 167.651 43.0108 168.967C43.5261 171.086 46.3428 171.994 47.9757 172.346C52.1689 173.249 56.6545 173.145 60.9487 172.042C64.8297 171.044 68.9369 169.358 69.3617 167.838C69.4302 167.59 69.4534 167.197 68.8569 166.629C67.087 164.949 63.9581 163.669 61.674 162.735L61.9131 162.179L61.6647 162.731C58.8875 161.598 56.2367 161.026 53.7601 161.026Z" fill="black"/>
<path d="M76.3947 200.715L79.7627 199.989C81.3411 199.65 82.3322 198.156 81.9748 196.652L75.1343 167.811C74.778 166.308 73.2089 165.364 71.6305 165.704L68.2625 166.429C66.6842 166.769 65.693 168.263 66.0505 169.767L72.8909 198.608C73.2472 200.111 74.8163 201.054 76.3947 200.715Z" fill="black"/>
<path d="M113.874 353.141C112.979 353.141 112.171 352.554 111.967 351.686L69.6207 173.147C69.3828 172.143 70.0443 171.144 71.0981 170.918C72.1554 170.688 73.2011 171.322 73.439 172.325L115.785 350.866C116.023 351.869 115.361 352.868 114.306 353.094C114.161 353.125 114.016 353.141 113.874 353.141Z" fill="black"/>
<path d="M79.7813 163.586L91.1143 189.073L74.0886 189.473L70.6615 175.224C69.2839 169.496 73.6244 163.958 79.7813 163.586Z" fill="#CE8E68"/>
<path d="M90.2378 189.748L77.3241 194.093L67.3594 189.517C66.5272 189.134 66.0549 188.279 66.1976 187.409C66.3764 186.318 67.4487 185.572 68.5942 185.741L75.9384 186.829L83.9301 178.299L90.2378 189.748Z" fill="#CE8E68"/>
<path d="M86.9909 182.924L76.772 189.255L66.3326 185.769C65.461 185.477 64.8912 184.677 64.9306 183.798C64.9794 182.694 65.9577 181.839 67.116 181.885L74.5425 182.185L81.484 172.857L86.9909 182.924Z" fill="#CE8E68"/>
<path d="M73.7856 172.833L74.5133 173.319C75.3095 173.852 75.5022 174.898 74.9428 175.656L72.1353 179.464C71.5759 180.223 70.478 180.406 69.6818 179.873L68.9542 179.387C68.158 178.854 67.9654 177.809 68.5248 177.05L71.3322 173.242C71.8916 172.483 72.9895 172.3 73.7856 172.833Z" fill="#CE8E68"/>
<path d="M83.9269 188.993L91.1143 189.072L85.995 199.416C85.4832 200.493 84.1497 200.973 83.0181 200.484C81.8854 199.997 81.3829 198.727 81.8947 197.649L83.9269 188.993Z" fill="#CE8E68"/>
<path d="M74.351 196.957L74.5495 196.115C74.7665 195.193 75.7263 194.613 76.6954 194.82L84.8647 196.562C85.8326 196.768 86.4419 197.683 86.2249 198.606L86.0264 199.448C85.8094 200.37 84.8496 200.95 83.8805 200.743L75.7112 199.001C74.7433 198.795 74.134 197.879 74.351 196.957Z" fill="#CE8E68"/>
<path d="M64.2189 177.574L64.4916 176.751C64.7899 175.85 65.7996 175.349 66.7455 175.634L74.6571 178.012C75.603 178.296 76.1287 179.258 75.8293 180.159L75.5566 180.982C75.2583 181.883 74.2498 182.384 73.3027 182.099L65.3911 179.721C64.4452 179.436 63.9206 178.475 64.2189 177.574Z" fill="#CE8E68"/>
<path d="M79.9457 54.083L82.8645 87.0594L59.1736 88.0885L58.5005 55.6239L79.9457 54.083Z" fill="#CE8E68"/>
<path d="M81.733 74.1904L77.6292 74.5209C71.0348 75.0526 65.2365 70.3922 64.6783 64.1113L63.9019 55.3765L79.9457 54.082L81.733 74.1904Z" fill="#AA6747"/>
<path d="M81.9246 76.4452C85.3877 83.6159 97.308 79.5922 104.337 87.2085C106.275 73.0748 91.2463 70.5423 93.9354 57.2764L81.1006 66.6546L81.9246 76.4452Z" fill="#824D35"/>
<path d="M83.6504 67.1385L62.1112 68.171L59.5835 46.5692C59.5254 45.7147 59.5243 44.8757 59.5962 44.0555C59.71 42.3654 60.0848 40.7437 60.6721 39.2039C61.669 36.6361 63.2521 34.3169 65.3074 32.4422C67.993 29.9815 71.4562 28.2803 75.3627 27.795C80.9021 27.1152 85.7127 27.239 89.3407 29.2254C92.9361 31.171 95.3838 34.9382 96.2392 41.5208C96.3413 42.3355 96.5583 43.1546 96.6256 44.0102L97.2489 52.1592C97.835 59.8683 91.7454 66.5803 83.6504 67.1385Z" fill="#CE8E68"/>
<path d="M63.626 52.5444L57.1256 52.1354C49.0294 29.9566 64.6659 29.4282 64.6659 29.4282C64.6659 29.4282 67.0589 33.4088 68.093 38.3013C68.093 38.3013 70.6823 48.1681 63.626 52.5444Z" fill="#824D35"/>
<path d="M83.3487 46.5828C84.9166 49.815 83.6469 53.6618 80.5134 55.174C77.3798 56.6862 73.5685 55.2922 72.0005 52.06C70.4326 48.8278 71.7023 44.981 74.8358 43.4688C77.9694 41.9567 81.7807 43.3506 83.3487 46.5828Z" fill="black"/>
<path d="M80.6885 44.8442L75.9417 54.4789C74.6465 54.0002 73.5138 53.0219 72.8511 51.6523C72.843 51.6335 72.8349 51.6236 72.836 51.6048L76.6195 43.8991C78.0424 43.6537 79.514 44.0085 80.6885 44.8442Z" fill="#403634"/>
<path d="M82.8242 47.7824L82.823 47.7912L79.4968 54.5342C78.718 54.8072 77.9114 54.8769 77.1211 54.7718L81.6056 45.6655C81.9561 46.0447 82.2601 46.4935 82.5027 46.992C82.6327 47.2518 82.7325 47.5171 82.8242 47.7824Z" fill="#403634"/>
<path d="M63.6262 52.5441C73.9786 44.7566 71.3301 28.8222 71.3301 28.8222C71.3301 28.8222 76.475 38.049 94.6148 34.8068C93.0886 20.5748 66.7748 20.9738 58.9038 31.5625L63.6262 52.5441Z" fill="#824D35"/>
<path d="M61.7237 52.9784L61.2026 51.8388L69.6284 48.338L72.3593 47.5078L72.755 48.6917L70.0869 49.5008L61.7237 52.9784Z" fill="black"/>
<path d="M59.246 58.6793L55.6424 56.6509C55.6424 56.6509 54.1684 62.4476 42.8133 71.282C31.4594 80.1042 35.0885 95.4671 35.0885 95.4671C40.6709 90.6895 69.0633 96.9914 70.6881 86.0446C72.3013 75.0868 59.6243 66.2402 59.246 58.6793ZM66.3533 86.7289C65.0802 88.5406 62.9134 89.8373 60.6201 89.8494C65.1568 86.1408 67.0346 79.8389 65.6477 74.2942C66.7561 76.2021 67.601 78.2913 67.8273 80.4635C68.0547 82.6356 67.6265 84.905 66.3533 86.7289Z" fill="#824D35"/>
<path d="M66.7376 54.9528C61.6357 47.2448 57.5458 46.9828 54.4076 48.8432C50.5057 51.1568 50.8887 58.542 55.7341 61.6206C59.9702 64.3122 65.7302 61.5178 66.466 56.7192L66.7376 54.9528Z" fill="#CE8E68"/>
<path d="M58.2842 54.4278L57.2998 55.5312L61.0592 58.5739L62.0437 57.4705L58.2842 54.4278Z" fill="#AA6747"/>
<path d="M75.6458 40.0722C71.6256 41.5501 70.588 39.5792 73.486 38.0051C76.6033 36.3138 80.6479 38.2328 75.6458 40.0722Z" fill="black"/>
<path d="M91.0668 38.2957C86.7599 38.4272 86.464 36.2396 89.7438 35.6659C93.2731 35.0491 96.4252 38.1321 91.0668 38.2957Z" fill="black"/>
<path d="M82.4704 60.551C82.0201 60.551 81.5698 60.4791 81.1415 60.3321C79.7163 59.8391 78.6683 58.5413 78.5337 57.1032L79.8336 56.9927C79.9229 57.9444 80.6436 58.8376 81.5872 59.1637C82.5307 59.4909 83.6843 59.2455 84.3946 58.569L85.3173 59.4478C84.5675 60.1619 83.5207 60.551 82.4704 60.551Z" fill="#824D35"/>
<path d="M99.3485 44.8571C100.573 48.2208 98.911 51.9295 95.6358 53.1388C92.3607 54.3492 88.713 52.6026 87.4886 49.2389C86.2642 45.8752 87.9261 42.1665 91.2013 40.9572C94.4764 39.7468 98.1241 41.4933 99.3485 44.8571Z" fill="black"/>
<path d="M100.162 44.3141L97.8438 44.6479L98.0388 45.8765L100.357 45.5427L100.162 44.3141Z" fill="black"/>
<path d="M96.8835 42.8764L91.1607 52.017C89.9212 51.419 88.8953 50.339 88.3788 48.913C88.373 48.8931 88.3649 48.8832 88.3695 48.8644L92.9341 41.5522C94.3732 41.4427 95.8007 41.9346 96.8835 42.8764Z" fill="#403634"/>
<path d="M98.7022 46.001L98.701 46.0099L94.6912 52.4068C93.8892 52.6058 93.078 52.5981 92.3027 52.4201L97.7099 43.7803C98.0186 44.1904 98.2762 44.6657 98.4654 45.1841C98.5675 45.455 98.6395 45.7291 98.7022 46.001Z" fill="#403634"/>
<path d="M84.666 44.2857L86.0332 43.6523C87.2344 46.0102 88.6677 47.55 90.0383 48.8632C91.4705 50.2372 91.8059 52.2446 90.8937 53.9801C90.1312 55.4304 88.6921 56.3357 87.0661 56.4485C86.7295 56.4717 86.3848 56.4607 86.0367 56.4131L86.2491 54.9805L84.666 44.2857Z" fill="#CE8E68"/>
<path d="M87.0649 56.4475C86.7284 56.4707 86.3837 56.4597 86.0355 56.4121L86.2479 54.9795C87.9145 55.1962 89.0379 54.2732 89.5335 53.3314C90.0232 52.4006 90.1289 51.0045 88.959 49.8836C87.4955 48.4809 85.9635 46.8316 84.666 44.2848L86.0332 43.6514C87.2344 46.0092 88.6677 47.549 90.0383 48.8622C91.4705 50.2362 91.8059 52.2436 90.8937 53.9791C90.13 55.4294 88.6909 56.3347 87.0649 56.4475Z" fill="#AA6747"/>
<path d="M26.0992 324.086L23.9626 333.321L22.2043 340.848L20.0967 349.439H69.0034L68.8085 344.923C68.7272 343.452 68.4034 342.082 67.8614 340.848C66.7043 338.209 64.5329 336.18 61.585 335.097L60.2689 334.624C59.1025 334.184 58.0244 333.626 57.0738 332.933C56.9822 332.882 56.8916 332.831 56.8046 332.764C55.911 332.122 55.1357 331.377 54.4567 330.549C52.9967 328.756 52.0416 326.575 51.7271 324.089H26.0992V324.086Z" fill="#CE8E68"/>
<path d="M23.9611 333.321L22.2028 340.848L20.0952 349.439H70.3842L70.1892 344.923C70.108 343.452 69.7842 342.083 69.2422 340.848C68.0851 338.209 64.5314 336.18 61.5835 335.097L60.2674 334.624C59.1011 334.184 58.0229 333.626 57.0724 332.933L49.6609 345.178H32.7919C31.6476 335.993 27.7887 333.828 23.9611 333.321Z" fill="#602D13"/>
<path d="M224.899 74.4873L252.52 83.9429L252.545 103.062C252.545 103.062 222.143 104.198 208.288 99.6385L224.899 74.4873Z" fill="#854830"/>
<path d="M181.913 64.8375L160.836 65.7428L150.7 38.3067L171.777 37.4014L172.624 39.694L179.031 57.0344L181.913 64.8375Z" fill="#854830"/>
<path d="M179.03 57.0342L173.854 57.2608C167.232 57.546 160.381 53.7876 158.573 48.8763L155.443 40.4233L172.625 39.6948L179.03 57.0342Z" fill="#643D22"/>
<path d="M180.967 16.4251C180.967 16.4251 181.705 10.3542 180.183 7.83721C179.01 5.89723 172.66 1.37061 172.66 1.37061C163.195 4.10979 148.817 11.1578 147.739 12.4268C146.661 13.6958 143.391 23.3814 141.748 27.1619C139.41 32.5474 139.767 34.6421 149.255 42.0914C148.256 46.2002 151.012 49.7519 155.246 50.6108L150.7 30.0149L180.967 16.4251Z" fill="#303030"/>
<path d="M178.536 49.3222L156.947 53.5227L152.368 32.1796C152.198 31.3538 152.084 30.5369 152.047 29.7289C151.934 28.0686 152.086 26.4436 152.452 24.8729C153.084 22.252 154.319 19.8024 156.071 17.7286C158.361 15.0094 161.644 13.3325 165.25 11.9938C168.512 10.7823 184.171 10.6762 187.404 22.8544C187.612 23.6348 187.932 24.4075 188.111 25.2332L189.797 33.0959C191.39 40.5353 186.348 47.8055 178.536 49.3222Z" fill="#854830"/>
<path d="M184.626 28.5239C184.909 29.8051 184.42 30.9879 183.531 31.167C182.642 31.3449 181.692 30.4518 181.408 29.1695C181.125 27.8883 181.614 26.7045 182.503 26.5265C183.391 26.3485 184.342 27.2417 184.626 28.5239Z" fill="#303030"/>
<path d="M155.397 38.3397C163.69 35.0169 152.081 18.9742 152.081 18.9742C152.081 18.9742 142.218 18.1573 149.009 38.7222L155.397 38.3397Z" fill="#303030"/>
<path d="M158.756 38.3841C152.765 31.4897 148.746 31.7262 145.936 33.9149C142.441 36.6375 143.793 43.7851 148.921 46.2015C153.403 48.3139 158.644 44.8993 158.725 40.1373L158.756 38.3841Z" fill="#854830"/>
<path d="M180.325 37.8038C180 37.8668 179.662 37.8978 179.318 37.8934L179.335 36.4729C180.986 36.484 181.959 35.4493 182.316 34.4733C182.67 33.5071 182.588 32.1353 181.3 31.1847C179.689 29.9942 177.977 28.5726 176.375 26.2468L177.623 25.4653C179.105 27.6176 180.706 28.9451 182.214 30.0594C183.792 31.2256 184.385 33.1412 183.725 34.9408C183.175 36.4442 181.894 37.4987 180.325 37.8038Z" fill="#643D22"/>
<path d="M150.449 38.8895L149.637 40.082L153.702 42.5935L154.514 41.401L150.449 38.8895Z" fill="#643D22"/>
<path d="M182.499 21.1064C178.28 21.4269 177.882 19.2935 181.072 18.5849C184.504 17.8233 187.748 20.7084 182.499 21.1064Z" fill="#303030"/>
<path d="M167.154 23.9188C163.434 25.8422 162.162 24.0459 164.776 22.1657C167.588 20.1428 171.782 21.5267 167.154 23.9188Z" fill="#303030"/>
<path d="M154.314 29.5548C157.942 29.1336 160.338 25.9015 160.338 25.9015L158.106 16.3784L150.072 20.0926L154.314 29.5548Z" fill="#303030"/>
<path d="M172.11 31.8236C172.393 33.1048 171.903 34.2887 171.014 34.4667C170.125 34.6446 169.175 33.7515 168.892 32.4703C168.609 31.1891 169.098 30.0052 169.987 29.8273C170.876 29.6493 171.827 30.5425 172.11 31.8236Z" fill="#303030"/>
<path d="M174.02 39.283C175.221 38.9326 177.206 38.5435 179.951 38.6253C180.71 38.6474 181.209 39.4344 180.847 40.07C178.179 44.747 175.067 42.4887 173.561 40.898C173.045 40.3541 173.286 39.4974 174.02 39.283Z" fill="#FDFAF7"/>
<path d="M156.452 22.7471L159.791 37.3163L155.89 38.6505L150.7 27.6661L156.452 22.7471Z" fill="#303030"/>
<path d="M153.089 20.0069L169.832 12.6294C160.341 7.94695 152.115 15.1 153.089 20.0069Z" fill="#303030"/>
<path d="M163.396 12.7296C173.286 18.9696 179.482 10.7144 179.482 10.7144C173.185 4.64686 163.396 12.7296 163.396 12.7296Z" fill="#303030"/>
<path d="M217.626 106.309C189.442 99.6387 172.957 83.8889 172.957 83.8889L177.642 68.0905C179.702 61.143 187.74 57.5394 194.675 60.4521L226.692 73.5556L217.626 106.309Z" fill="#3C8C20"/>
<path d="M216.484 155.257H149.646L141.701 81.3135C140.782 72.6737 147.166 64.8795 156.186 63.6293L185.116 59.6244C193.339 58.4825 201.017 63.1274 203.63 70.3313C203.992 71.3052 204.261 72.3387 204.415 73.4021L205.964 83.8824L209.756 109.616L216.484 155.257Z" fill="#3C8C20"/>
<path d="M162.054 155.257H149.645L141.7 81.3132C141.689 81.2347 141.679 81.1551 141.679 81.0767H146.617L162.054 155.257Z" fill="#357A1D"/>
<path d="M200.049 105.538L167.064 119.426L168.12 121.7L201.105 107.812L200.049 105.538Z" fill="#357A1D"/>
<path d="M175.503 69.0751C162.631 71.1422 157.377 63.4464 157.377 63.4464H157.398L172.102 60.4728L185.088 59.6084C184.546 62.2757 182.769 67.9078 175.503 69.0751Z" fill="#854830"/>
<path d="M185.699 240.764H155.395L155.067 235.389L153.449 208.712L151.38 174.511H181.673L183.668 207.306L185.511 237.656L185.699 240.764Z" fill="#854830"/>
<path d="M242.423 240.764H212.119L207.482 227.22L200.399 206.518L189.442 174.511H219.746L230.224 205.129L237.785 227.22L242.423 240.764Z" fill="#854830"/>
<path d="M155.395 240.764L149.649 155.257L181.913 151.452L185.699 240.764H155.395Z" fill="#A36955"/>
<path d="M212.119 240.764L185.088 166L215.341 147.511L242.423 240.764H212.119Z" fill="#A36955"/>
<path d="M242.42 240.761H212.12L225.348 303.298H255.649L242.42 240.761Z" fill="#854830"/>
<path d="M185.699 240.761H155.4L145.904 314.691L173.195 314.982L185.699 240.761Z" fill="#854830"/>
<path d="M223.894 184.489H153.752L149.649 155.257L215.34 147.511L223.894 184.489Z" fill="#A36955"/>
<path d="M215.839 150.924L149.555 158.691L149.714 159.924L215.999 152.157L215.839 150.924Z" fill="#824D35"/>
<path d="M155.544 158.551L154.24 158.614L158.594 240.787L159.898 240.725L155.544 158.551Z" fill="#824D35"/>
<path d="M155.779 172.917L155.477 171.707C167.018 169.098 168.82 157.021 168.838 156.899L170.132 157.061C170.112 157.191 168.206 170.107 155.779 172.917Z" fill="#824D35"/>
<path d="M217.871 164.818C214.94 164.818 208.793 163.451 204.558 153.013L205.775 152.565C210.947 165.313 218.863 163.529 219.199 163.448L219.534 164.65C219.441 164.672 218.827 164.818 217.871 164.818Z" fill="#824D35"/>
<path d="M109.144 130.067L133.789 127.127C138.602 116.623 150.701 92.4647 150.701 92.4647L152.539 64.5654C138.763 65.924 131.832 68.0121 126.337 81.4803C120.181 96.5646 113.206 117.741 109.144 130.067Z" fill="#854830"/>
<path d="M138.478 117.245L141.211 111.633L120.052 112.228L138.478 117.245Z" fill="#643D22"/>
<path d="M128.411 115.143C154.423 121.68 179.077 130.222 179.077 130.222L189.813 142.899L172.111 139.399C117.89 149.728 109.147 130.086 109.147 130.086L128.411 115.143Z" fill="#854830"/>
<path d="M196.4 143.603L198.68 153.94C198.857 154.742 198.375 155.543 197.559 155.804C196.685 156.083 195.738 155.646 195.426 154.82L191.763 145.147L196.4 143.603Z" fill="#854830"/>
<path d="M188.948 138.342L196.399 143.603L197.033 156.128C197.076 156.986 196.37 157.709 195.47 157.731C194.805 157.747 194.199 157.371 193.945 156.785L190.776 149.469L177.756 143.416L188.948 138.342Z" fill="#854830"/>
<path d="M186.554 140.64L198.108 141.112L201.117 146.708C201.336 147.116 201.824 147.326 202.29 147.213C202.842 147.08 203.176 146.547 203.039 146.022L200.965 138.061L193.989 134.348L186.554 140.64Z" fill="#854830"/>
<path d="M193.995 134.352L179.153 150.064C179.153 150.064 178.862 149.92 178.354 149.643C176.247 148.478 170.388 144.895 166.033 138.812C165.018 137.406 164.087 135.865 163.296 134.199L165.347 126.253L171.037 127.857L171.828 128.091L193.995 134.352Z" fill="#854830"/>
<path d="M181.248 143.405L187.903 151.715L188.269 157.545C188.309 158.193 187.692 158.7 187.026 158.568L186.96 158.554C186.604 158.484 186.314 158.241 186.196 157.915L184.46 153.172L179.158 150.062L181.248 143.405Z" fill="#854830"/>
<path d="M227.635 324.49H259.747L253.109 284.688L222.169 288.266L227.635 324.49Z" fill="#F0E9EA"/>
<path d="M225.128 349.438H297.982L296.078 343.244C295.45 341.223 294.514 339.347 293.32 337.652C290.787 334.044 287.077 331.266 282.67 329.786L280.697 329.125C278.761 328.475 276.946 327.621 275.262 326.587C273.813 325.697 272.47 324.686 271.258 323.543C268.61 321.089 266.526 318.083 265.185 314.691H224.25L224.93 337.651L225.128 349.438Z" fill="black"/>
<path d="M267.503 317.725H253.109V319.489H267.503V317.725Z" fill="#FDFAF7"/>
<path d="M271.213 322.499H256.822V324.263H271.213V322.499Z" fill="#FDFAF7"/>
<path d="M238.617 334.555C238.116 334.062 237.854 333.41 237.876 332.717C237.922 331.313 239.159 330.171 240.633 330.171C241.36 330.171 242.036 330.442 242.538 330.934C243.039 331.427 243.302 332.079 243.279 332.772C243.233 334.176 241.996 335.318 240.522 335.318C239.794 335.318 239.118 335.047 238.617 334.555ZM239.728 332.772C239.721 332.985 239.799 333.18 239.949 333.327C240.422 333.794 241.409 333.388 241.428 332.717C241.435 332.505 241.358 332.309 241.208 332.162C241.059 332.015 240.855 331.935 240.635 331.935C240.149 331.935 239.742 332.31 239.728 332.772Z" fill="#FDFAF7"/>
<path d="M247.308 334.555C246.806 334.062 246.544 333.41 246.566 332.717C246.613 331.313 247.851 330.171 249.325 330.171C250.051 330.171 250.728 330.442 251.229 330.934C251.731 331.427 251.993 332.079 251.971 332.772C251.925 334.176 250.689 335.318 249.215 335.318C248.485 335.318 247.808 335.047 247.308 334.555ZM248.417 332.772C248.41 332.985 248.488 333.18 248.637 333.327C249.113 333.793 250.097 333.393 250.118 332.717C250.125 332.505 250.047 332.309 249.897 332.162C249.749 332.015 249.544 331.935 249.324 331.935C248.848 331.935 248.432 332.319 248.417 332.772Z" fill="#FDFAF7"/>
<path d="M225.128 349.438H297.982L296.078 343.244C295.45 341.223 294.514 339.348 293.32 337.652H224.93L225.128 349.438Z" fill="#F0E9EA"/>
<path d="M270.549 342.664H224.734V344.428H270.549V342.664Z" fill="#357A1D"/>
<path d="M257.094 349.438H297.981L296.076 343.244C295.449 341.224 294.513 339.348 293.319 337.652C290.785 334.044 287.076 331.266 282.668 329.786L280.695 329.125C278.759 328.475 276.944 327.622 275.26 326.587C265.778 330.76 258.716 339.287 257.094 349.438Z" fill="#F0E9EA"/>
<path d="M265.186 314.692L266.12 311.239C266.778 308.809 264.914 306.495 262.297 306.495H258.648C255.766 306.495 253.035 307.889 251.399 310.197L248.211 314.692H265.186Z" fill="black"/>
<path d="M142.783 324.49L174.863 325.864L179.94 287.786L148.377 286.16L142.783 324.49Z" fill="#FDFAF7"/>
<path d="M136.531 349.438H209.385L208.746 343.244C208.531 341.223 207.978 339.347 207.13 337.652C205.334 334.044 202.192 331.266 198.086 329.786L196.248 329.125C194.444 328.475 192.803 327.621 191.331 326.587C190.065 325.697 188.928 324.686 187.949 323.543C185.804 321.089 184.332 318.083 183.684 314.691H142.75L138.741 337.652L136.531 349.438Z" fill="black"/>
<path d="M185.201 317.725H170.809V319.489H185.201V317.725Z" fill="#FDFAF7"/>
<path d="M187.939 322.499H173.547V324.263H187.939V322.499Z" fill="#FDFAF7"/>
<path d="M153.138 334.507C152.697 333.982 152.539 333.269 152.707 332.551L152.71 332.55C153.027 331.215 154.381 330.171 155.79 330.171C156.532 330.171 157.206 330.468 157.64 330.983C158.081 331.51 158.239 332.223 158.068 332.939C157.751 334.272 156.399 335.318 154.988 335.318C154.245 335.318 153.572 335.022 153.138 334.507ZM154.515 332.939C154.469 333.133 154.495 333.297 154.585 333.405C154.689 333.528 154.862 333.555 154.989 333.555C155.54 333.555 156.136 333.086 156.265 332.552C156.31 332.358 156.284 332.192 156.194 332.086C156.091 331.962 155.918 331.936 155.79 331.936C155.239 331.935 154.643 332.405 154.515 332.939Z" fill="#FDFAF7"/>
<path d="M161.831 334.507C161.39 333.982 161.232 333.269 161.4 332.551L161.402 332.55C161.718 331.215 163.073 330.171 164.482 330.171C165.226 330.171 165.898 330.468 166.332 330.985C166.773 331.512 166.931 332.225 166.76 332.938C166.443 334.274 165.091 335.319 163.679 335.319C162.938 335.318 162.265 335.024 161.831 334.507ZM163.207 332.939C163.162 333.133 163.188 333.297 163.278 333.406C163.381 333.528 163.553 333.554 163.68 333.554C164.233 333.554 164.829 333.085 164.955 332.55C165 332.357 164.977 332.192 164.887 332.085C164.782 331.961 164.611 331.935 164.484 331.935C163.93 331.935 163.335 332.405 163.207 332.939Z" fill="#FDFAF7"/>
<path d="M136.531 349.438H209.385L208.746 343.244C208.531 341.223 207.978 339.348 207.13 337.652H138.74L136.531 349.438Z" fill="#FDFAF7"/>
<path d="M183.689 342.664H137.875V344.428H183.689V342.664Z" fill="#357A1D"/>
<path d="M168.497 349.438H209.385L208.746 343.244C208.531 341.224 207.978 339.348 207.13 337.652C205.334 334.044 202.192 331.266 198.086 329.786L196.248 329.125C194.444 328.475 192.803 327.622 191.331 326.587C180.996 330.76 172.192 339.287 168.497 349.438Z" fill="#FDFAF7"/>
<path d="M183.683 314.692L185.322 311.239C186.477 308.809 185.085 306.495 182.468 306.495H178.818C175.936 306.495 172.921 307.889 170.813 310.197L166.708 314.692H183.683Z" fill="black"/>
<path d="M157.398 63.4458C141.472 63.7498 132.516 64.1842 126.141 79.3636C119.766 94.543 115.82 105.675 115.82 105.675L139.84 114.44L152.503 92.8097L157.398 63.4458Z" fill="#3C8C20"/>
<path d="M155.396 240.764L145.97 289.518H141.285L139.75 300.587H183.092L185.7 240.764H155.396Z" fill="#A36955"/>
<path d="M212.119 240.764L218.486 289.518H213.802L215.932 300.587H258.625L242.422 240.764H212.119Z" fill="#A36955"/>
<path d="M158.592 240.664L150.72 289.946L152.01 290.133L159.882 240.851L158.592 240.664Z" fill="#824D35"/>
<path d="M224.284 290.144L215.839 239.209L196.568 185.111H191.763V183.867H197.503L217.101 238.913L225.573 289.949L224.284 290.144Z" fill="#824D35"/>
<path d="M255.648 288.896H218.485V290.139H255.648V288.896Z" fill="#824D35"/>
<path d="M183.574 288.896H145.969V290.139H183.574V288.896Z" fill="#824D35"/>
<path d="M194.818 175.56L193.72 175.074C193.508 174.98 188.51 172.707 186.771 167.012L188.023 166.665C189.109 170.221 191.663 172.332 193.148 173.304L190.239 154.558L191.53 154.376L194.818 175.56Z" fill="#824D35"/>
<path d="M133.335 98.2397L122.373 100.994C121.522 101.208 120.974 101.995 121.099 102.824C121.233 103.711 122.086 104.336 123.02 104.229L133.979 102.982L133.335 98.2397Z" fill="#CE8E68"/>
<path d="M141.798 102.312L133.336 98.2397L121.029 103.43C120.187 103.784 119.817 104.731 120.209 105.524C120.498 106.11 121.137 106.466 121.815 106.418L130.286 105.822L142.061 114.379L141.798 102.312Z" fill="#CE8E68"/>
<path d="M138.947 108.996L133.198 99.1581L126.45 99.1039C125.958 99.0995 125.533 98.7723 125.428 98.3146C125.303 97.7741 125.66 97.2391 126.228 97.1164L134.816 95.2715L141.576 99.64L138.947 108.996Z" fill="#CE8E68"/>
<path d="M146.027 119.891C136.867 119.926 136.387 115.151 136.387 115.151L141.575 99.6392C145.251 102.508 147.146 106.957 146.608 111.453L146.027 119.891Z" fill="#CE8E68"/>
<path d="M139.77 109.436L128.748 107.454L122.988 109.809C122.348 110.071 122.144 110.84 122.577 111.358L122.62 111.41C122.851 111.687 123.216 111.828 123.583 111.783L128.93 111.12L136.389 115.152L139.77 109.436Z" fill="#CE8E68"/>
<path d="M258.048 103.068C258.048 103.068 241.024 104.562 224.898 102.471L231.476 76.7393L253.244 83.2158L258.048 103.068Z" fill="#3E4147"/>
<path d="M269.049 1.60934C269.049 1.94539 268.935 2.26926 268.722 2.55777L266.252 5.79882L261.539 5.01841L266.126 0.493989C266.73 -0.0940848 267.701 -0.165936 268.382 0.325968C268.823 0.648745 269.049 1.1296 269.049 1.60934Z" fill="#3E4147"/>
<path d="M266.743 9.61433L268.746 22.8902L258.048 16.9244L258.426 8.08998L259.257 7.48975L266.743 9.61433Z" fill="#3E4147"/>
<path d="M271.531 1.78926C271.531 2.08883 271.443 2.37734 271.267 2.62937L268.898 5.9898C268.898 5.96548 266.226 4.81365 264.21 3.94922L268.962 0.564485C269.68 0.0482618 270.7 0.191963 271.23 0.888367C271.43 1.15256 271.531 1.47754 271.531 1.78926Z" fill="#3E4147"/>
<path d="M256.338 6.28615L252.615 5.05584L255.869 1.57051C256.113 1.30963 256.447 1.1792 256.797 1.1792C257.101 1.1792 257.39 1.28089 257.632 1.48318C258.058 1.84464 258.179 2.45262 257.891 2.93126L256.338 6.28615Z" fill="#3E4147"/>
<path d="M261.387 17.5127L251.747 15.1958L251.205 9.20675L255.792 8.89502L261.387 17.5127Z" fill="#3E4147"/>
<path d="M251.747 15.188L273.732 18.0576C274.041 24.6956 278.285 33.0756 271.001 42.3665L260.804 42.3124L259.001 36.928L258.759 36.1741L251.747 15.188Z" fill="#3E4147"/>
<path d="M273.523 13.8405L273.724 18.0532L266.769 20.1413L269.44 12.5195L273.523 13.8405Z" fill="#3E4147"/>
<path d="M276.597 8.10241L274.468 10.8272L271.342 9.43442L275.111 6.67423C275.653 6.2785 276.434 6.48189 276.698 7.08212L276.724 7.14181C276.862 7.45464 276.812 7.82717 276.597 8.10241Z" fill="#3E4147"/>
<path d="M249.945 18.5573C249.201 19.3256 248.092 20.5382 247.299 21.3905L245.559 17.526C245.206 16.7456 245.722 15.8701 246.604 15.7496L246.693 15.7374C247.159 15.6777 247.625 15.8458 247.928 16.194L249.945 18.5573Z" fill="#3E4147"/>
<path d="M260.808 42.3098L248.912 24.798L252.251 21.2817L260.19 22.8658L260.808 42.3098Z" fill="#3E4147"/>
<path d="M258.047 103.068C267.295 81.905 271.833 37.5264 271.833 37.5264L266.131 38.3399L248.911 86.0038L258.047 103.068Z" fill="#3E4147"/>
<path d="M250.065 25.7391L248.356 23.1005L246.935 20.0064L248.132 19.5112L249.509 22.5268L251.175 25.0858L250.065 25.7391Z" fill="#3E4147"/>
<path d="M248.981 18.171L247.931 18.9102L251.521 23.5363L252.571 22.7971L248.981 18.171Z" fill="#3E4147"/>
<path d="M252.883 10.3321L251.58 10.2823L251.726 6.80805L254.329 3.36914L255.389 4.0965L253.014 7.23142L252.883 10.3321Z" fill="#3E4147"/>
<path d="M254.523 10.7104L253.952 7.19853L255.409 4.48145L256.572 5.04741L255.307 7.40634L255.812 10.5214L254.523 10.7104Z" fill="#3E4147"/>
<path d="M263.435 3.8267L259.096 8.1582L260.04 9.01664L264.379 4.68514L263.435 3.8267Z" fill="#3E4147"/>
<path d="M264.044 10.6866L262.748 10.5429C263.179 6.99568 263.254 6.91498 263.42 6.73922C263.567 6.57894 265.622 4.15479 265.622 4.15479L266.637 4.93631C266.078 5.59513 264.866 7.02331 264.492 7.45331C264.408 7.86894 264.206 9.35903 264.044 10.6866Z" fill="#3E4147"/>
<path d="M266.443 11.0761L265.143 10.9634L265.501 7.22603L268.265 4.34424L269.228 5.18323L266.76 7.75551L266.443 11.0761Z" fill="#3E4147"/>
<path d="M270.57 14.0841L269.321 13.7193L270.309 10.6629L272.562 8.84668L273.404 9.79401L271.444 11.3769L270.57 14.0841Z" fill="#3E4147"/>
<path d="M272.871 14.6388L271.578 14.473L271.977 11.6619L273.728 9.27979L274.798 9.99277L273.227 12.1284L272.871 14.6388Z" fill="#3E4147"/>
<path d="M262.61 34.7793C258.792 46.4358 240.681 80.2456 240.681 80.2456L246.023 82.8731L265.199 36.528L262.61 34.7793Z" fill="#3E4147"/>
<path d="M581.662 43.7148C581.662 43.7148 579.136 76.4049 576.306 78.5615C573.475 80.7182 552.636 93.2722 552.893 122.405H609.063V46.412L581.662 43.7148Z" fill="black"/>
<path d="M646.692 126.995H642.109C642.513 117.974 641.192 108.883 638.198 100.316C639.123 107.213 640.201 117.41 640.125 126.995H597.148V47.4126L613.464 35.6909C625.024 50.1595 622.385 73.6604 624.646 76.5234C626.907 79.3996 648 88.129 646.692 126.995Z" fill="black"/>
<path d="M457.51 193.634H338.851V252.37H457.51V193.634Z" fill="#DBA785"/>
<path d="M337.508 199.328C337.508 191.549 344.153 185.221 352.32 185.221H456.166V142.224C456.166 132.808 464.21 125.148 474.096 125.148H491.656V127.707H474.096C465.691 127.707 458.853 134.219 458.853 142.224V185.221H459.13V187.78H458.853V253.65H337.508V199.328ZM456.166 187.781H352.32C345.635 187.781 340.195 192.961 340.195 199.329V251.092H456.166V187.781Z" fill="#3E4147"/>
<path d="M340.195 252.371H337.508V311.52H340.195V252.371Z" fill="#DBA785"/>
<path d="M339.099 349.801C352.308 349.801 363.017 339.737 363.017 327.321C363.017 314.905 352.308 304.84 339.099 304.84C325.889 304.84 315.18 314.905 315.18 327.321C315.18 339.737 325.889 349.801 339.099 349.801Z" fill="#3E4147"/>
<path d="M339.098 314.741C346.495 314.741 352.512 320.384 352.512 327.321C352.512 334.257 346.495 339.9 339.098 339.9C331.702 339.9 325.684 334.257 325.684 327.321C325.684 320.384 331.702 314.741 339.098 314.741ZM339.098 312.558C330.424 312.558 323.392 319.167 323.392 327.321C323.392 335.473 330.424 342.083 339.098 342.083C347.772 342.083 354.804 335.474 354.804 327.321C354.804 319.168 347.774 312.558 339.098 312.558Z" fill="#F2FFFF"/>
<path d="M479.891 266.238L439.594 297.251L441.035 298.949L481.331 267.936L479.891 266.238Z" fill="#3E4147"/>
<path d="M491.056 297.026H440.32V299.209H491.056V297.026Z" fill="#3E4147"/>
<path d="M441.048 297.221L439.607 298.918L479.888 329.952L481.329 328.254L441.048 297.221Z" fill="#3E4147"/>
<path d="M441.466 298.117H439.174V341.975H441.466V298.117Z" fill="#3E4147"/>
<path d="M439.595 297.261L399.299 328.274L400.74 329.972L441.035 298.959L439.595 297.261Z" fill="#3E4147"/>
<path d="M440.32 297.026H389.585V299.209H440.32V297.026Z" fill="#3E4147"/>
<path d="M400.76 266.279L399.318 267.976L439.593 299.013L441.035 297.316L400.76 266.279Z" fill="#3E4147"/>
<path d="M441.466 254.26H439.174V298.118H441.466V254.26Z" fill="#3E4147"/>
<path d="M452.394 297.71C452.394 303.98 446.988 309.062 440.32 309.062C433.651 309.062 428.246 303.98 428.246 297.71C428.246 291.44 433.652 286.357 440.32 286.357C446.988 286.357 452.394 291.44 452.394 297.71Z" fill="#3E4147"/>
<path d="M440.169 255.719C465.036 255.719 485.266 274.709 485.266 298.052C485.266 321.395 465.036 340.387 440.169 340.387C415.303 340.387 395.073 321.396 395.073 298.052C395.073 274.708 415.303 255.719 440.169 255.719ZM440.169 249C411.357 249 388 270.961 388 298.052C388 325.143 411.357 347.104 440.169 347.104C468.982 347.104 492.338 325.143 492.338 298.052C492.338 270.962 468.982 249 440.169 249Z" fill="#EFEFEF"/>
<path d="M440.321 250.085C468.504 250.085 491.434 271.631 491.434 298.117C491.434 324.602 468.504 346.149 440.321 346.149C412.137 346.149 389.208 324.602 389.208 298.117C389.208 271.631 412.136 250.085 440.321 250.085ZM440.321 246.433C409.962 246.433 385.351 269.572 385.351 298.117C385.351 326.662 409.961 349.801 440.321 349.801C470.68 349.801 495.29 326.662 495.29 298.117C495.289 269.572 470.679 246.433 440.321 246.433Z" fill="#3E4147"/>
<path d="M487.662 115.416L485.662 126.289L491.067 133.568C491.518 134.176 492.334 134.431 493.076 134.197C494.007 133.903 494.51 132.945 494.202 132.059L492.221 126.374L498.575 118.827L487.662 115.416Z" fill="#E09A78"/>
<path d="M494.096 117.041L489.979 126.049L494.496 133.859C494.873 134.511 495.654 134.851 496.419 134.698C497.379 134.504 497.992 133.607 497.788 132.692L496.486 126.832L503.687 120.009L494.096 117.041Z" fill="#E09A78"/>
<path d="M504.63 125.974L504.412 125.764C503.748 125.122 502.664 125.115 501.991 125.748L499.362 128.218C498.689 128.85 498.682 129.882 499.346 130.523L499.564 130.733C500.228 131.375 501.312 131.381 501.985 130.749L504.614 128.279C505.287 127.647 505.295 126.615 504.63 125.974Z" fill="#E09A78"/>
<path d="M489.208 120.326L488.132 114.625L479.786 120.142C478.914 120.7 478.68 121.826 479.267 122.657C479.853 123.489 481.035 123.711 481.908 123.153L489.208 120.326Z" fill="#E09A78"/>
<path d="M483.779 128.972L484.071 128.858C484.964 128.512 485.393 127.541 485.03 126.691L482.53 120.84C482.167 119.99 481.148 119.581 480.255 119.927L479.963 120.041C479.07 120.387 478.641 121.358 479.004 122.208L481.504 128.059C481.867 128.909 482.886 129.318 483.779 128.972Z" fill="#E09A78"/>
<path d="M502.172 134.294L502.454 134.157C503.313 133.739 503.654 132.739 503.215 131.921L500.23 126.347C499.791 125.529 498.741 125.204 497.882 125.622L497.6 125.759C496.741 126.177 496.4 127.178 496.839 127.996L499.825 133.569C500.261 134.387 501.313 134.711 502.172 134.294Z" fill="#E09A78"/>
<path d="M480.017 127.526L480.13 125.605C480.22 124.066 481.604 122.887 483.219 122.974L508.546 124.324C510.161 124.411 511.398 125.728 511.308 127.267L511.195 129.188C511.105 130.727 509.721 131.905 508.106 131.819L482.78 130.467C481.163 130.382 479.927 129.064 480.017 127.526Z" fill="black"/>
<path d="M512.047 120.064L488.131 114.625L490.164 128.212L503.128 128.942C508.339 129.235 512.584 125.01 512.047 120.064Z" fill="#E09A78"/>
<path d="M512.047 120.064L578.041 131.628C570.538 153.276 533.626 153.698 506.857 126.164L512.047 120.064Z" fill="#E09A78"/>
<path d="M494.873 128.568L489.635 123.362L484.159 129.836C483.312 130.838 483.377 132.284 484.312 133.212C485.246 134.141 486.759 134.264 487.847 133.502L494.873 128.568Z" fill="#E09A78"/>
<path d="M563.902 234.423C565.541 208.056 578.759 150.228 578.759 150.228L613.461 169.648L593.91 234.422H563.902V234.423Z" fill="#E09A78"/>
<path d="M592.69 321.808L565.716 326.457L563.903 234.423H593.912L592.69 321.808Z" fill="#E09A78"/>
<path d="M595.041 321.714L564.822 326.532L564.483 288.078L594.193 286.803L595.041 321.714Z" fill="#F0E9EA"/>
<path d="M596.319 346.656H526.804L528.621 340.746C529.22 338.819 530.113 337.028 531.252 335.41C533.67 331.966 537.208 329.315 541.415 327.904L543.298 327.273C545.144 326.653 546.877 325.838 548.483 324.851C549.866 324.002 551.147 323.038 552.304 321.947C554.829 319.606 556.82 316.737 558.098 313.5H597.158L596.509 335.408L596.319 346.656Z" fill="black"/>
<path d="M569.619 316.397H555.886V318.08H569.619V316.397Z" fill="#FDFAF7"/>
<path d="M566.076 320.951H552.344V322.635H566.076V320.951Z" fill="#FDFAF7"/>
<path d="M581.63 333.183C580.224 333.183 579.044 332.093 578.998 330.754C578.977 330.093 579.228 329.47 579.706 328.999C580.184 328.53 580.83 328.271 581.524 328.271C582.93 328.271 584.111 329.361 584.156 330.701C584.177 331.362 583.926 331.984 583.448 332.455C582.97 332.926 582.324 333.183 581.63 333.183ZM581.524 329.956C581.314 329.956 581.119 330.033 580.977 330.172C580.834 330.312 580.76 330.499 580.767 330.702C580.786 331.341 581.727 331.729 582.178 331.283C582.321 331.144 582.395 330.956 582.388 330.754C582.374 330.314 581.986 329.956 581.524 329.956Z" fill="#FDFAF7"/>
<path d="M573.337 333.183C571.931 333.183 570.753 332.093 570.707 330.754C570.686 330.093 570.937 329.47 571.415 328.999C571.893 328.53 572.539 328.271 573.233 328.271C574.639 328.271 575.82 329.361 575.865 330.701C575.886 331.362 575.635 331.984 575.157 332.455C574.678 332.926 574.032 333.183 573.337 333.183ZM573.232 329.956C573.021 329.956 572.826 330.033 572.685 330.172C572.542 330.312 572.468 330.499 572.475 330.702C572.496 331.346 573.435 331.728 573.888 331.283C574.03 331.144 574.104 330.956 574.097 330.754C574.082 330.322 573.685 329.956 573.232 329.956Z" fill="#FDFAF7"/>
<path d="M596.319 346.656H526.804L528.621 340.747C529.22 338.819 530.113 337.028 531.252 335.41H596.509L596.319 346.656Z" fill="#F0E9EA"/>
<path d="M596.695 340.193H552.978V341.876H596.695V340.193Z" fill="#94C19B"/>
<path d="M565.818 346.656H526.804L528.621 340.747C529.22 338.819 530.113 337.028 531.252 335.41C533.67 331.967 537.208 329.316 541.415 327.904L543.298 327.273C545.144 326.653 546.877 325.838 548.483 324.851C557.53 328.835 564.269 336.971 565.818 346.656Z" fill="#F0E9EA"/>
<path d="M558.097 313.503L557.206 310.209C556.578 307.89 558.357 305.682 560.854 305.682H564.335C567.085 305.682 569.69 307.012 571.251 309.214L574.293 313.502H558.097V313.503Z" fill="black"/>
<path d="M578.76 150.229C571.648 169.784 569.604 194.679 569.604 194.679L606.899 198.379L616.531 150.229H578.76Z" fill="#010418"/>
<path d="M570.218 188.803L570.104 190.004L603.955 192.931L604.07 191.73L570.218 188.803Z" fill="#F2FFFF"/>
<path d="M400.686 188.128C441.762 179.145 463.587 151.174 463.587 151.174L453.059 139.657C448.43 134.592 442.651 134.271 439.091 136.004L388.261 174.099L400.686 188.128Z" fill="#AC7AED"/>
<path d="M400.707 188.131C391.118 186.424 383.987 179.041 378.826 169.399C374.863 162.007 372.072 153.284 370.217 144.759C369.648 142.15 369.167 139.559 368.765 137.025H382.154C384.578 152.299 416.918 162.913 400.707 188.131Z" fill="#E6A978"/>
<path d="M384.236 110.718L376.768 103.344C376.189 102.771 375.252 102.704 374.589 103.186C373.879 103.702 373.73 104.662 374.256 105.351L380.41 113.42L384.236 110.718Z" fill="#E6A978"/>
<path d="M384.609 119.277L384.236 110.718L374.03 103.411C373.331 102.912 372.337 103.056 371.828 103.733C371.452 104.233 371.439 104.9 371.794 105.413L376.231 111.819L374.237 125.066L384.609 119.277Z" fill="#E6A978"/>
<path d="M381.369 119.855L387.265 110.769L384.191 105.421C383.967 105.03 384.055 104.544 384.404 104.249C384.816 103.9 385.447 103.934 385.815 104.325L391.393 110.247L390.721 117.6L381.369 119.855Z" fill="#E6A978"/>
<path d="M390.72 117.595L369.4 120.378C369.101 126.816 364.985 134.943 372.049 143.952L381.938 143.899L383.687 138.677L383.921 137.946L390.72 117.595Z" fill="#E6A978"/>
<path d="M376.15 122.404L372.775 112.792L368.063 109.337C367.54 108.954 366.776 109.148 366.525 109.731L366.501 109.788C366.368 110.098 366.414 110.451 366.623 110.72L369.673 114.631L369.405 120.377L376.15 122.404Z" fill="#E6A978"/>
<path d="M381.937 143.899L393.669 126.637L396.722 119.858C397.061 119.105 396.556 118.25 395.704 118.136L395.62 118.125C395.166 118.065 394.712 118.235 394.424 118.574L390.23 123.504L382.532 125.04L381.937 143.899Z" fill="#E6A978"/>
<path d="M449.558 132.716C451.221 125.736 456.016 123.409 465.598 124.676L463.472 134.504L449.558 132.716Z" fill="#FFDECF"/>
<path d="M455.247 136.936L475.734 138.587L480.045 108.371L460.53 110.352L460.087 112.574L456.748 129.374L455.247 136.936Z" fill="#E6A978"/>
<path d="M456.749 129.374L461.542 128.891C467.674 128.27 473.42 123.898 474.36 119.141L475.996 110.95L460.088 112.574L456.749 129.374Z" fill="#D6895E"/>
<path d="M456.48 119.187L476.54 123.197L480.911 103.365C481.073 102.598 481.182 101.838 481.222 101.087C481.336 99.5423 481.203 98.0312 480.87 96.5676C480.297 94.1269 479.161 91.842 477.542 89.9054C475.426 87.3652 472.381 85.7888 469.034 84.5276C466.006 83.3857 451.44 83.2121 448.369 94.5259C448.172 95.2511 447.87 95.9674 447.7 96.7345L446.09 104.04C444.569 110.953 449.22 117.741 456.48 119.187Z" fill="#E6A978"/>
<path d="M451.302 99.3144C451.032 100.505 451.482 101.608 452.307 101.778C453.134 101.949 454.021 101.122 454.292 99.9312C454.562 98.7407 454.112 97.6375 453.287 97.4673C452.462 97.2959 451.573 98.1239 451.302 99.3144Z" fill="#303030"/>
<path d="M478.062 109.082C470.364 105.952 481.246 91.0835 481.246 91.0835C481.246 91.0835 490.424 90.3705 484.002 109.469L478.062 109.082Z" fill="#643D22"/>
<path d="M474.937 109.106C480.546 102.721 484.283 102.959 486.885 105.01C490.122 107.559 488.826 114.201 484.044 116.425C479.863 118.37 475.006 115.168 474.955 110.738L474.937 109.106Z" fill="#E6A978"/>
<path d="M454.876 108.465C455.177 108.526 455.491 108.555 455.812 108.554L455.804 107.232C454.268 107.234 453.369 106.268 453.041 105.357C452.717 104.457 452.799 103.181 454.004 102.303C455.509 101.203 457.109 99.8884 458.61 97.7329L457.453 97C456.063 98.9953 454.568 100.222 453.158 101.251C451.684 102.328 451.124 104.108 451.727 105.785C452.231 107.187 453.418 108.175 454.876 108.465Z" fill="#D6895E"/>
<path d="M482.647 109.589L478.853 111.907L479.602 113.021L483.397 110.703L482.647 109.589Z" fill="#DB773F"/>
<path d="M452.941 92.9229C456.864 93.2413 457.246 91.2582 454.282 90.5839C451.092 89.8598 448.06 92.5283 452.941 92.9229Z" fill="#8C290B"/>
<path d="M467.2 95.6116C470.65 97.4178 471.843 95.7531 469.421 93.9922C466.816 92.0975 462.907 93.3643 467.2 95.6116Z" fill="#643D22"/>
<path d="M462.927 102.444C462.656 103.634 463.107 104.738 463.932 104.908C464.757 105.078 465.646 104.251 465.916 103.061C466.187 101.87 465.736 100.767 464.911 100.597C464.086 100.425 463.197 101.253 462.927 102.444Z" fill="#303030"/>
<path d="M460.733 109.871C459.617 109.54 457.772 109.168 455.22 109.231C454.513 109.249 454.046 109.978 454.38 110.571C456.838 114.934 459.744 112.847 461.153 111.375C461.633 110.872 461.415 110.073 460.733 109.871Z" fill="#FDFAF7"/>
<path d="M458.511 133.864C459.532 130.112 462.826 127.194 466.298 126.112C473.367 123.91 480.787 124.843 480.787 124.843L479.123 136.601L458.511 133.864Z" fill="white"/>
<path d="M495.564 94.788C494.401 100.339 488.734 103.941 482.906 102.833C477.077 101.726 473.296 96.3278 474.459 90.7765C475.622 85.2252 481.289 81.6238 487.118 82.7314C492.945 83.839 496.727 89.2367 495.564 94.788Z" fill="#643D22"/>
<path d="M459.881 92.6839C464.807 89.5163 466.104 83.1452 462.778 78.4538C459.452 73.7623 452.763 72.5271 447.838 75.6947C442.912 78.8623 441.615 85.2333 444.941 89.9248C448.266 94.6162 454.955 95.8515 459.881 92.6839Z" fill="#643D22"/>
<path d="M483.188 81.6246C481.868 87.9199 475.442 92.0055 468.833 90.7486C462.223 89.4918 457.935 83.3712 459.253 77.0748C460.572 70.7795 466.999 66.6939 473.61 67.9508C480.218 69.2076 484.507 75.3293 483.188 81.6246Z" fill="#643D22"/>
<path d="M491.654 153.027L487.174 194.791L484.269 221.806H422.091L426.072 194.791L428.347 179.35L431.873 155.418L433.316 145.668C433.465 144.677 433.71 143.718 434.051 142.81C436.484 136.11 443.622 131.786 451.269 132.852L478.181 136.577C486.572 137.736 492.512 144.986 491.654 153.027Z" fill="#AC7AED"/>
<path d="M432.449 147.332L427.746 179.295L428.998 179.463L433.702 147.499L432.449 147.332Z" fill="#772BD9"/>
<path d="M488.881 178.868L484.271 221.808H422.093L427.378 185.055L488.881 178.868Z" fill="#772BD9"/>
<path d="M472.724 221.811H484.267L491.658 153.027C491.667 152.954 491.678 152.88 491.678 152.807L481.311 150.229L472.724 221.811Z" fill="#772BD9"/>
<path d="M386.048 318.574H277.537V323.448H386.048V318.574Z" fill="#3E4147"/>
<path d="M347.968 294.77H317.328L323.661 256.791L353.184 260.205L347.968 294.77Z" fill="#F0E9EA"/>
<path d="M350.361 318.575H280.846L282.663 312.665C283.262 310.737 284.155 308.947 285.294 307.329C287.712 303.886 291.25 301.235 295.457 299.824L297.34 299.193C299.186 298.573 300.919 297.758 302.525 296.771C303.908 295.922 305.189 294.958 306.346 293.867C308.871 291.526 310.862 288.657 312.14 285.42H351.199L350.55 307.328L350.361 318.575Z" fill="black"/>
<path d="M323.661 288.314H309.928V289.997H323.661V288.314Z" fill="#FDFAF7"/>
<path d="M320.119 292.87H306.387V294.553H320.119V292.87Z" fill="#FDFAF7"/>
<path d="M335.671 305.102C334.265 305.102 333.084 304.012 333.04 302.672C333.019 302.011 333.27 301.389 333.748 300.918C334.226 300.448 334.872 300.189 335.566 300.189C336.972 300.189 338.153 301.279 338.198 302.619C338.219 303.28 337.968 303.903 337.49 304.373C337.011 304.843 336.365 305.102 335.671 305.102ZM335.565 301.873C335.354 301.873 335.159 301.95 335.018 302.09C334.875 302.229 334.801 302.417 334.808 302.619C334.826 303.258 335.768 303.646 336.219 303.201C336.362 303.061 336.436 302.873 336.429 302.671C336.415 302.231 336.028 301.873 335.565 301.873Z" fill="#FDFAF7"/>
<path d="M327.378 305.102C325.972 305.102 324.792 304.012 324.748 302.672C324.727 302.011 324.978 301.389 325.456 300.918C325.934 300.447 326.58 300.189 327.274 300.189C328.68 300.189 329.861 301.279 329.906 302.619C329.927 303.28 329.676 303.903 329.198 304.373C328.719 304.843 328.073 305.102 327.378 305.102ZM327.273 301.873C327.062 301.873 326.868 301.95 326.726 302.09C326.583 302.229 326.509 302.417 326.516 302.619C326.537 303.264 327.476 303.645 327.929 303.201C328.071 303.061 328.145 302.873 328.138 302.671C328.123 302.24 327.726 301.873 327.273 301.873Z" fill="#FDFAF7"/>
<path d="M350.361 318.575H280.846L282.663 312.665C283.262 310.738 284.155 308.947 285.294 307.33H350.551L350.361 318.575Z" fill="#F0E9EA"/>
<path d="M350.736 312.11H307.019V313.794H350.736V312.11Z" fill="#94C19B"/>
<path d="M319.859 318.575H280.845L282.662 312.665C283.261 310.737 284.154 308.947 285.293 307.329C287.711 303.886 291.249 301.235 295.456 299.824L297.339 299.192C299.185 298.572 300.918 297.758 302.524 296.771C311.572 300.752 318.31 308.889 319.859 318.575Z" fill="#F0E9EA"/>
<path d="M312.139 285.42L311.247 282.126C310.62 279.807 312.399 277.6 314.895 277.6H318.377C321.126 277.6 323.732 278.929 325.293 281.131L328.335 285.419H312.139V285.42Z" fill="black"/>
<path d="M363.174 193.918L353.622 274.161H317.014L330.143 209.498C332.179 199.469 341.759 192.468 352.457 193.194L363.174 193.918Z" fill="#010418"/>
<path d="M355.266 193.072L441.789 197.686L436.204 244.413L332.024 234.598L332.899 212.47C333.345 201.183 343.425 192.441 355.266 193.072Z" fill="#010418"/>
<path d="M381.148 294.77H350.507L356.841 256.791L386.362 260.205L381.148 294.77Z" fill="#F0E9EA"/>
<path d="M383.54 318.575H314.024L315.842 312.665C316.441 310.737 317.333 308.947 318.473 307.329C320.89 303.886 324.429 301.235 328.636 299.824L330.519 299.193C332.365 298.573 334.098 297.758 335.704 296.771C337.085 295.922 338.368 294.958 339.525 293.867C342.05 291.526 344.04 288.657 345.318 285.42H384.379L383.73 307.328L383.54 318.575Z" fill="black"/>
<path d="M356.84 288.314H343.106V289.997H356.84V288.314Z" fill="#FDFAF7"/>
<path d="M353.297 292.87H339.565V294.553H353.297V292.87Z" fill="#FDFAF7"/>
<path d="M368.851 305.102C367.445 305.102 366.265 304.012 366.22 302.672C366.2 302.011 366.45 301.389 366.928 300.918C367.407 300.448 368.052 300.189 368.746 300.189C370.152 300.189 371.333 301.279 371.378 302.619C371.399 303.28 371.148 303.903 370.67 304.373C370.191 304.843 369.545 305.102 368.851 305.102ZM368.745 301.873C368.535 301.873 368.34 301.95 368.198 302.09C368.055 302.229 367.981 302.417 367.988 302.619C368.007 303.258 368.948 303.646 369.399 303.201C369.542 303.061 369.616 302.873 369.609 302.671C369.595 302.231 369.207 301.873 368.745 301.873Z" fill="#FDFAF7"/>
<path d="M360.558 305.102C359.151 305.102 357.972 304.012 357.928 302.672C357.907 302.011 358.158 301.389 358.636 300.918C359.114 300.448 359.759 300.189 360.453 300.189C361.86 300.189 363.04 301.279 363.086 302.619C363.106 303.28 362.856 303.903 362.378 304.373C361.898 304.843 361.253 305.102 360.558 305.102ZM360.452 301.873C360.242 301.873 360.047 301.95 359.906 302.09C359.762 302.229 359.689 302.417 359.696 302.619C359.716 303.264 360.655 303.645 361.109 303.201C361.251 303.061 361.325 302.873 361.318 302.671C361.303 302.24 360.906 301.873 360.452 301.873Z" fill="#FDFAF7"/>
<path d="M383.54 318.575H314.024L315.842 312.665C316.441 310.738 317.333 308.947 318.473 307.33H383.73L383.54 318.575Z" fill="#F0E9EA"/>
<path d="M383.916 312.11H340.199V313.794H383.916V312.11Z" fill="#F1CCB4"/>
<path d="M353.037 318.575H314.023L315.841 312.665C316.44 310.737 317.332 308.947 318.472 307.329C320.889 303.886 324.428 301.235 328.635 299.824L330.518 299.192C332.364 298.572 334.097 297.758 335.703 296.771C344.751 300.752 351.489 308.889 353.037 318.575Z" fill="#F0E9EA"/>
<path d="M345.318 285.42L344.427 282.126C343.799 279.807 345.578 277.6 348.075 277.6H351.557C354.306 277.6 356.912 278.929 358.472 281.131L361.514 285.419H345.318V285.42Z" fill="black"/>
<path d="M404.577 193.918L390.547 274.161H350.194L363.322 209.498C365.358 199.469 374.939 192.468 385.637 193.194L404.577 193.918Z" fill="#051537"/>
<path d="M388.94 215.791L378.715 274.327L379.963 274.525L390.188 215.988L388.94 215.791Z" fill="#010418"/>
<path d="M391.635 267.978H351.199V269.182H391.635V267.978Z" fill="#010418"/>
<path d="M388.445 193.072L474.969 197.686L469.384 244.413L365.204 234.598L366.079 212.47C366.524 201.183 376.605 192.441 388.445 193.072Z" fill="#051537"/>
<path d="M504.707 193.468H386.049V252.204H504.707V193.468Z" fill="black"/>
<path d="M384.705 199.162C384.705 191.383 391.349 185.055 399.516 185.055H503.363V142.058C503.363 132.642 511.406 124.982 521.292 124.982H538.853V127.541H521.292C512.887 127.541 506.049 134.053 506.049 142.058V185.055H506.327V187.614H506.049V253.484H384.705V199.162ZM503.363 187.614H399.516C392.831 187.614 387.392 192.794 387.392 199.162V250.925H503.363V187.614Z" fill="#3E4147"/>
<path d="M387.392 252.204H384.705V311.353H387.392V252.204Z" fill="#3E4147"/>
<path d="M388.225 349.801C401.539 349.801 412.331 339.657 412.331 327.144C412.331 314.63 401.539 304.486 388.225 304.486C374.911 304.486 364.119 314.63 364.119 327.144C364.119 339.657 374.911 349.801 388.225 349.801Z" fill="#3E4147"/>
<path d="M388.225 314.466C395.68 314.466 401.745 320.153 401.745 327.144C401.745 334.134 395.68 339.822 388.225 339.822C380.771 339.822 374.706 334.134 374.706 327.144C374.705 320.153 380.77 314.466 388.225 314.466ZM388.225 312.265C379.483 312.265 372.395 318.926 372.395 327.144C372.395 335.36 379.483 342.023 388.225 342.023C396.968 342.023 404.056 335.361 404.056 327.144C404.054 318.926 396.968 312.265 388.225 312.265Z" fill="white"/>
<path d="M530.124 265.58L489.51 296.837L490.962 298.548L531.575 267.291L530.124 265.58Z" fill="#3E4147"/>
<path d="M541.377 296.61H490.242V298.81H541.377V296.61Z" fill="#3E4147"/>
<path d="M490.987 296.88L489.534 298.59L530.127 329.872L531.579 328.162L490.987 296.88Z" fill="#3E4147"/>
<path d="M491.397 297.71H489.087V341.913H491.397V297.71Z" fill="#3E4147"/>
<path d="M489.511 296.845L448.898 328.102L450.349 329.813L490.963 298.556L489.511 296.845Z" fill="#3E4147"/>
<path d="M490.242 296.61H439.108V298.81H490.242V296.61Z" fill="#3E4147"/>
<path d="M450.366 265.595L448.913 267.305L489.505 298.587L490.958 296.877L450.366 265.595Z" fill="#3E4147"/>
<path d="M491.397 253.507H489.087V297.71H491.397V253.507Z" fill="#3E4147"/>
<path d="M490.243 307.471C495.977 307.471 500.625 303.101 500.625 297.71C500.625 292.319 495.977 287.949 490.243 287.949C484.51 287.949 479.862 292.319 479.862 297.71C479.862 303.101 484.51 307.471 490.243 307.471Z" fill="#3E4147"/>
<path d="M490.243 255.043C515.306 255.043 535.695 274.183 535.695 297.71C535.695 321.237 515.306 340.377 490.243 340.377C465.18 340.377 444.791 321.237 444.791 297.71C444.791 274.183 465.18 255.043 490.243 255.043ZM490.243 248.272C461.204 248.272 437.663 270.407 437.663 297.71C437.663 325.015 461.204 347.148 490.243 347.148C519.282 347.148 542.823 325.013 542.823 297.71C542.823 270.407 519.282 248.272 490.243 248.272Z" fill="white"/>
<path d="M490.243 249.3C518.649 249.3 541.759 271.017 541.759 297.71C541.759 324.403 518.649 346.12 490.243 346.12C461.838 346.12 438.727 324.403 438.727 297.71C438.727 271.017 461.837 249.3 490.243 249.3ZM490.243 245.619C459.646 245.619 434.842 268.941 434.842 297.71C434.842 326.479 459.646 349.801 490.243 349.801C520.841 349.801 545.646 326.479 545.646 297.71C545.644 268.941 520.841 245.619 490.243 245.619Z" fill="#3E4147"/>
<path d="M521.942 198.378L499.017 195.644C494.541 185.873 478.467 162.97 478.467 162.97L477.075 136.407C489.89 137.671 500.838 140.655 505.95 153.183C511.675 167.214 518.164 186.912 521.942 198.378Z" fill="#AC7AED"/>
<path d="M498.177 193.917C479.892 210.191 464.715 227.861 464.715 227.861L461.785 242.751L474.667 232.454C523.864 218.156 521.939 198.396 521.939 198.396L498.177 193.917Z" fill="#E6A978"/>
<path d="M462.583 229.61L452.101 233.721C450.512 234.344 449.236 235.526 448.539 237.021L444.897 244.823C444.266 246.175 445.363 247.684 446.914 247.595C447.392 247.568 447.846 247.384 448.198 247.074L462.583 229.61Z" fill="#D6895E"/>
<path d="M466.375 226.335L450.706 239.868L474.759 245.619L480.496 230.56L466.375 226.335Z" fill="#E6A978"/>
<path d="M450.706 239.868L447.568 251.611C447.14 253.144 448.718 254.493 450.272 253.923C450.756 253.745 451.151 253.399 451.377 252.954L454.379 246.315L462.282 241.391L450.706 239.868Z" fill="#E6A978"/>
<path d="M457.076 240.888L452.608 247.69C451.698 249.075 452.221 250.906 453.743 251.661C455.009 252.289 456.567 251.959 457.435 250.879L463.753 243.024L457.076 240.888Z" fill="#E6A978"/>
<path d="M462.706 242.276L458.238 249.079C457.328 250.464 457.851 252.294 459.373 253.049C460.639 253.677 462.197 253.348 463.065 252.268L469.383 244.413L462.706 242.276Z" fill="#E6A978"/>
<path d="M468.082 243.481L463.614 250.284C462.704 251.669 463.227 253.499 464.749 254.254C466.015 254.882 467.572 254.553 468.441 253.473L474.76 245.618L468.082 243.481Z" fill="#E6A978"/>
<path d="M618.523 153.784L619.752 154.278C637.004 161.22 645.143 180.118 637.98 196.6L624.383 237.076L594.556 231.942L601.671 180.01C602.533 169.196 608.804 159.436 618.523 153.784Z" fill="#EDB192"/>
<path d="M651.983 335.722C651.568 336.63 651.091 337.527 650.554 338.377C650.359 338.679 650.151 338.982 649.943 339.284C648.977 340.692 647.853 341.985 646.57 343.149L646.387 343.323C642.94 346.384 638.443 348.236 633.762 348.84V348.91L617.667 350.167L617.765 350.131C611.459 350.586 605.043 348.734 600.693 344.335L615.163 343.194C617.839 345.907 621.31 347.629 625.037 348.467L625.514 348.362C627.861 347.408 630.048 346.115 631.918 344.462C631.98 344.403 632.04 344.346 632.089 344.275C633.384 343.111 634.509 341.819 635.461 340.423C635.926 339.759 636.354 339.072 636.745 338.374C637.014 337.886 637.271 337.373 637.503 336.861C640.827 329.749 640.741 321.112 637.308 313.977C636.232 311.754 634.901 309.694 633.372 307.75C632.822 307.041 632.248 306.353 631.637 305.679C628.338 301.919 624.378 298.602 620.406 295.458C616.3 292.199 612.084 288.986 608.332 285.39C606.389 283.528 604.568 281.561 602.966 279.431C602.637 278.989 602.319 278.558 602.001 278.104C601.817 277.825 601.634 277.557 601.451 277.267C598.81 273.169 597.088 268.35 596.953 263.613C596.856 260.516 597.43 257.456 598.885 254.65L613.355 253.509C611.913 256.315 611.326 259.376 611.424 262.472C611.558 267.221 613.282 272.04 615.921 276.137C616.104 276.417 616.287 276.695 616.482 276.964C616.788 277.418 617.106 277.86 617.435 278.29C619.036 280.42 620.845 282.388 622.801 284.249C626.553 287.846 630.769 291.059 634.875 294.319C639.238 297.775 643.601 301.442 647.072 305.679C647.341 305.982 647.598 306.296 647.841 306.609C649.369 308.565 650.701 310.625 651.777 312.837C655.223 319.974 655.296 328.621 651.983 335.722Z" fill="#3E4147"/>
<path d="M651.983 335.722C651.567 336.63 651.09 337.526 650.553 338.376H636.743C637.013 337.888 637.269 337.375 637.501 336.863C640.825 329.751 640.739 321.114 637.306 313.979C636.23 311.756 634.899 309.695 633.371 307.752C632.821 307.043 632.246 306.355 631.636 305.681H647.07C647.339 305.984 647.596 306.297 647.84 306.611C649.367 308.567 650.699 310.627 651.775 312.839C655.222 319.974 655.295 328.621 651.983 335.722Z" fill="#010418"/>
<path d="M629.644 228.274L628.887 231.09L627.702 235.479L626.638 239.448L625.454 243.837L623.034 252.822C621.177 259.69 614.711 264.277 607.562 264.277C606.413 264.277 605.24 264.148 604.066 263.904C596.281 262.251 590.966 255.384 591.613 247.818L592.873 235.398L593.337 230.824L593.582 228.391L594.046 223.851L594.559 218.729L629.644 228.274Z" fill="#3E4147"/>
<path d="M628.887 231.09L627.701 235.479L593.58 228.39L594.045 223.851L628.887 231.09Z" fill="#010418"/>
<path d="M626.637 239.448L625.452 243.836L592.871 235.396L593.335 230.822L626.637 239.448Z" fill="#010418"/>
<path d="M577.311 80.9927C563.904 87.8561 555.213 128.555 555.213 128.555L588.567 131.139L577.311 80.9927Z" fill="#E09A78"/>
<path d="M581.662 116.969L582.206 126.425L583.213 144.056L583.517 149.39L583.572 150.278L587.143 151.042H587.153L620.389 158.178L619.171 138.641L619.152 138.316L618.175 122.55L609.823 121.275L609.022 121.153L608.818 121.117H608.809L581.986 117.022L581.662 116.969Z" fill="#A36955"/>
<path d="M601.025 180.847C601.025 180.847 610.451 167.465 635.128 158.979L625.417 138.281L619.152 138.317L582.978 140.447L578.76 150.228C577.805 153.383 584.247 169.365 601.025 180.847Z" fill="#010418"/>
<path d="M627.896 143.712L581.669 144.398L581.689 145.604L627.916 144.917L627.896 143.712Z" fill="#F2FFFF"/>
<path d="M632.603 96.8121L625.403 138.286L625.38 138.647L583.411 140.34L582.109 128.338L581.067 118.796L580.735 115.785L580.651 115.018L578.473 95.0312L577.312 80.9882L593.974 75.1572L615.811 76.5898C619.707 76.8385 623.223 78.2369 626.031 80.3913C630.968 84.1906 633.728 90.3488 632.603 96.8121Z" fill="#E1151F"/>
<path d="M612.531 128.833C612.531 128.833 596.034 133.672 582.108 128.337C581.978 128.292 581.836 128.235 581.706 128.179C581.67 128.179 581.635 128.168 581.61 128.145C577.857 126.645 575.121 124.592 573.498 121.839V121.828C572.385 119.923 571.805 117.667 571.805 115.016C571.816 109.94 573.948 103.41 578.472 95.029C580.912 90.5057 584.038 85.4529 587.923 79.791L599.22 102.316L608.279 120.363L609.06 121.919L612.531 128.833Z" fill="#E1151F"/>
<path d="M632.603 96.812L625.402 138.286L625.379 138.647L583.41 140.339L582.108 128.338C581.978 128.293 581.836 128.236 581.706 128.18C581.67 128.18 581.635 128.169 581.61 128.146C577.857 126.646 575.121 124.593 573.498 121.841V121.829C572.385 119.924 571.805 117.668 571.805 115.017H590.681L599.22 102.317L612.531 82.5335L626.03 80.3901C630.967 84.1905 633.727 90.3487 632.603 96.812Z" fill="#C7020C"/>
<path d="M597.042 85.7713L606.048 85.391C609.345 85.2518 611.899 82.5933 611.753 79.4539L610.956 62.4595L589.594 63.3604L590.373 79.9558C590.527 83.3162 593.513 85.9194 597.042 85.7713Z" fill="#EDB192"/>
<path d="M590.171 75.7747L590.309 78.7991C599.427 79.3264 609.184 73.1538 605.778 59.5386L589.452 60.2239L590.171 75.7747Z" fill="#E09A78"/>
<path d="M594.224 30.1008C583.838 29.4972 574.905 37.0261 574.271 46.9184L573.893 52.8223C573.307 61.9651 580.613 69.829 590.212 70.3872L607.485 71.392C609.118 71.4871 610.522 70.3032 610.622 68.7479L611.881 49.1071C612.514 39.2137 604.609 30.7054 594.224 30.1008Z" fill="#EDB192"/>
<path d="M579.377 49.3469C579.327 50.7573 580.079 51.9269 581.057 51.9589C582.036 51.9899 582.87 50.8723 582.92 49.4618C582.97 48.0513 582.218 46.8818 581.24 46.8497C580.261 46.8188 579.427 47.9364 579.377 49.3469Z" fill="#303030"/>
<path d="M592.468 50.3454C592.418 51.7559 593.17 52.9254 594.148 52.9574C595.127 52.9895 595.961 51.8708 596.011 50.4603C596.061 49.0498 595.309 47.8803 594.33 47.8483C593.351 47.8173 592.518 48.9349 592.468 50.3454Z" fill="#303030"/>
<path d="M609.22 54.5843C609.22 54.5843 586.556 49.1867 591.555 30.1284C620.74 26.7249 622.168 51.6694 609.22 54.5843Z" fill="black"/>
<path d="M609.262 63.1127C609.262 63.1127 602.963 81.8592 609.72 85.1743C616.478 88.4894 624.199 79.2648 630.737 85.6927C630.737 85.6927 631.929 81.2258 621.95 76.1089L618.688 58.4468L609.262 63.1127Z" fill="black"/>
<path d="M604.812 56.4303C608.994 48.0845 613.083 47.3572 616.478 48.8771C622.7 51.6638 620.661 65.5864 609.261 63.1125L604.812 56.4303Z" fill="#EDB192"/>
<path d="M598.316 29.839C598.316 29.839 579.238 29.1614 574.125 49.1913C573.196 32.3096 584.553 28.4605 598.316 29.839Z" fill="black"/>
<path d="M580.23 41.1825C584.599 41.0045 584.726 38.7694 581.359 38.4256C577.738 38.0553 574.794 41.4036 580.23 41.1825Z" fill="black"/>
<path d="M595.588 41.6546C599.918 42.2405 600.47 40.065 597.228 39.1409C593.739 38.1472 590.2 40.9261 595.588 41.6546Z" fill="black"/>
<path d="M585.174 59.4449L584.923 57.8742C583.267 58.1151 582.137 57.2043 581.633 56.2702C581.135 55.3494 581.012 53.9632 582.163 52.8357C583.635 51.391 585.174 49.6953 586.463 47.0876L584.953 46.4111C583.768 48.8088 582.336 50.3839 580.967 51.7281C579.51 53.1552 579.19 55.2234 580.15 56.9965C581.116 58.7872 583.089 59.7467 585.174 59.4449Z" fill="#E09A78"/>
<path d="M615.253 53.3712L609.398 58.2217L610.494 59.421L616.348 54.5705L615.253 53.3712Z" fill="#E09A78"/>
<path d="M588.644 63.5813C587.264 63.5813 585.898 62.9203 585.111 61.8359L586.777 60.7393C587.239 61.3783 588.134 61.7386 588.931 61.6325C589.736 61.5197 590.474 60.9272 590.726 60.1899L592.651 60.7858C592.163 62.2161 590.786 63.3227 589.224 63.5404C589.031 63.5681 588.837 63.5813 588.644 63.5813Z" fill="#E38B7A"/>
<path d="M633.668 155.864C645.715 177.25 640.758 194.219 635.335 204.473L599.069 199.654L603.798 160.376L633.668 155.864Z" fill="#010418"/>
<path d="M630.714 159.62C629.923 159.62 617.159 159.371 612.854 144.699L614.072 144.374C618.229 158.538 630.621 158.405 630.719 158.414L630.752 159.62C630.748 159.62 630.737 159.62 630.714 159.62Z" fill="#C2E2F5"/>
<path d="M531.233 128.167L525.995 122.96L520.52 129.435C519.673 130.436 519.738 131.882 520.672 132.811C521.606 133.739 523.12 133.863 524.207 133.1L531.233 128.167Z" fill="#E09A78"/>
<path d="M516.378 127.124L516.49 125.203C516.581 123.664 517.964 122.486 519.58 122.572L544.906 123.924C546.521 124.01 547.759 125.328 547.668 126.867L547.555 128.788C547.465 130.327 546.082 131.505 544.466 131.419L519.14 130.067C517.523 129.981 516.287 128.663 516.378 127.124Z" fill="black"/>
<path d="M548.409 119.664L524.494 114.224L526.526 127.812L539.49 128.541C544.7 128.834 548.945 124.608 548.409 119.664Z" fill="#EDB192"/>
<path d="M524.023 115.015L522.023 125.887L527.428 133.166C527.879 133.774 528.695 134.03 529.437 133.795C530.368 133.501 530.871 132.544 530.562 131.658L528.581 125.973L534.936 118.426L524.023 115.015Z" fill="#EDB192"/>
<path d="M530.456 116.641L526.339 125.649L530.855 133.457C531.232 134.109 532.013 134.45 532.778 134.296C533.738 134.103 534.351 133.205 534.148 132.291L532.846 126.43L540.046 119.608L530.456 116.641Z" fill="#EDB192"/>
<path d="M540.992 125.572L540.774 125.362C540.11 124.721 539.026 124.714 538.353 125.347L535.724 127.816C535.051 128.449 535.044 129.481 535.708 130.122L535.926 130.332C536.59 130.973 537.674 130.981 538.347 130.348L540.976 127.878C541.647 127.246 541.656 126.213 540.992 125.572Z" fill="#EDB192"/>
<path d="M525.568 119.925L524.493 114.223L516.147 119.74C515.274 120.298 515.041 121.425 515.627 122.256C516.213 123.087 517.396 123.31 518.268 122.751L525.568 119.925Z" fill="#EDB192"/>
<path d="M520.141 128.571L520.433 128.457C521.326 128.111 521.755 127.141 521.392 126.291L518.892 120.44C518.529 119.59 517.51 119.181 516.617 119.527L516.325 119.641C515.432 119.987 515.003 120.957 515.366 121.807L517.866 127.658C518.229 128.508 519.247 128.917 520.141 128.571Z" fill="#EDB192"/>
<path d="M538.532 133.893L538.814 133.756C539.673 133.338 540.014 132.337 539.576 131.519L536.589 125.946C536.151 125.128 535.1 124.803 534.242 125.221L533.96 125.358C533.101 125.775 532.76 126.776 533.198 127.594L536.184 133.168C536.623 133.986 537.675 134.311 538.532 133.893Z" fill="#EDB192"/>
<path d="M548.409 119.664L614.403 131.228C606.9 152.876 569.989 153.298 543.219 125.764L548.409 119.664Z" fill="#EDB192"/>
<path d="M614.402 131.228C620.642 122.455 627.168 104.034 630.908 92.44C632.727 86.7992 629.415 80.8245 623.503 79.0569C617.938 77.3933 611.96 80.0463 609.719 85.1753L590.683 128.738L614.402 131.228Z" fill="#EDB192"/>
<path d="M599.701 199.655H598.436V167.713L591.207 163.07L591.913 162.07L599.701 167.072V199.655Z" fill="#F2FFFF"/>
<path d="M630.238 203.913L629.041 203.52C636.974 181.658 634.708 163.591 620.957 139.082L622.074 138.514C636.012 163.357 638.3 181.693 630.238 203.913Z" fill="#F2FFFF"/>
<path d="M599.159 194.06L598.985 195.253L636.872 200.24L637.045 199.047L599.159 194.06Z" fill="#F2FFFF"/>
</svg>
