<svg width="24" height="23" viewBox="0 0 24 23" fill="none" xmlns="http://www.w3.org/2000/svg">
<path d="M23.6019 8.45591C23.53 8.24211 23.3992 8.05431 23.2254 7.9153C23.0516 7.77629 22.8423 7.69203 22.6228 7.67275L16.1452 6.70257L13.2423 0.659385C13.1491 0.461759 13.0035 0.29509 12.8223 0.178471C12.6411 0.061852 12.4316 0 12.2177 0C12.0039 0 11.7943 0.061852 11.6131 0.178471C11.4319 0.29509 11.2864 0.461759 11.1931 0.659385L8.29018 6.69088L1.8126 7.67275C1.60191 7.7035 1.40383 7.79427 1.24084 7.93477C1.07785 8.07527 0.956471 8.25986 0.890489 8.4676C0.83009 8.67061 0.82467 8.88667 0.874811 9.0926C0.924951 9.29853 1.02876 9.48656 1.17509 9.6365L5.87674 14.3121L4.73833 20.9514C4.69769 21.1705 4.71897 21.397 4.79966 21.6042C4.88035 21.8113 5.01707 21.9904 5.19369 22.1203C5.36584 22.2467 5.56889 22.3212 5.78003 22.3357C5.99118 22.3502 6.20207 22.3039 6.38903 22.2021L12.2177 19.0812L18.0236 22.2138C18.1834 22.3064 18.3638 22.3547 18.5473 22.3541C18.7884 22.3549 19.0236 22.2772 19.219 22.132C19.3956 22.0021 19.5323 21.823 19.613 21.6159C19.6937 21.4087 19.715 21.1822 19.6743 20.9631L18.5359 14.3238L23.2376 9.64818C23.4019 9.5052 23.5234 9.31727 23.5879 9.10623C23.6524 8.89518 23.6572 8.66967 23.6019 8.45591ZM16.6006 13.1315C16.4671 13.2641 16.3672 13.4282 16.3097 13.6095C16.2521 13.7909 16.2387 13.9839 16.2705 14.1718L17.0901 19.0695L12.8097 16.7317C12.645 16.6416 12.4612 16.5945 12.2746 16.5945C12.088 16.5945 11.9043 16.6416 11.7396 16.7317L7.45914 19.0695L8.2788 14.1718C8.3106 13.9839 8.29714 13.7909 8.2396 13.6095C8.18205 13.4282 8.08217 13.2641 7.94866 13.1315L4.53341 9.62481L9.32614 8.91178C9.51056 8.88544 9.68587 8.81306 9.83672 8.70097C9.98756 8.58889 10.1093 8.44053 10.1913 8.26889L12.2177 3.8154L14.3579 8.28058C14.4399 8.45222 14.5617 8.60058 14.7125 8.71266C14.8634 8.82475 15.0387 8.89713 15.2231 8.92347L20.0158 9.6365L16.6006 13.1315Z" fill="#F3C72A"/>
<path d="M9.39052 8.38295L12.2401 2.79443L15.4971 8.38295L20.3827 9.18131L17.1256 13.5723L17.9399 19.56L12.2401 17.5641L6.94741 20.3583L7.762 14.3707L6.94804 13.5723L4.96732 11.8245C3.875 11.0711 2.86004 10.3331 2.87665 9.97967C2.94017 8.62714 8.20395 8.65143 9.39052 8.38295Z" fill="#F3C72A"/>
</svg>
