<svg width="25" height="23" viewBox="0 0 25 23" fill="none" xmlns="http://www.w3.org/2000/svg">
<g filter="url(#filter0_d_1407_1899)">
<path d="M11.4583 15.7085H13.5416V9.4585H11.4583V15.7085ZM12.4999 7.37516C12.7951 7.37516 13.0426 7.27516 13.2426 7.07516C13.4426 6.87516 13.5423 6.62794 13.5416 6.3335C13.5416 6.03836 13.4416 5.79079 13.2416 5.59079C13.0416 5.39079 12.7944 5.29114 12.4999 5.29183C12.2048 5.29183 11.9572 5.39183 11.7572 5.59183C11.5572 5.79183 11.4576 6.03905 11.4583 6.3335C11.4583 6.62864 11.5583 6.87621 11.7583 7.07621C11.9583 7.27621 12.2055 7.37586 12.4999 7.37516ZM12.4999 20.9168C11.0589 20.9168 9.70478 20.6432 8.43742 20.096C7.17006 19.5488 6.06763 18.8068 5.13013 17.87C4.19263 16.9325 3.45061 15.83 2.90409 14.5627C2.35756 13.2953 2.08395 11.9411 2.08325 10.5002C2.08325 9.05919 2.35686 7.70502 2.90409 6.43766C3.45131 5.1703 4.19332 4.06787 5.13013 3.13037C6.06763 2.19287 7.17006 1.45086 8.43742 0.90433C9.70478 0.357802 11.0589 0.0841905 12.4999 0.0834961C13.9409 0.0834961 15.2951 0.357107 16.5624 0.90433C17.8298 1.45155 18.9322 2.19357 19.8697 3.13037C20.8072 4.06787 21.5496 5.1703 22.0968 6.43766C22.644 7.70502 22.9173 9.05919 22.9166 10.5002C22.9166 11.9411 22.643 13.2953 22.0958 14.5627C21.5485 15.83 20.8065 16.9325 19.8697 17.87C18.9322 18.8075 17.8298 19.5498 16.5624 20.097C15.2951 20.6443 13.9409 20.9175 12.4999 20.9168ZM12.4999 18.8335C14.8263 18.8335 16.7968 18.0262 18.4114 16.4116C20.026 14.797 20.8333 12.8266 20.8333 10.5002C20.8333 8.17377 20.026 6.20329 18.4114 4.5887C16.7968 2.97412 14.8263 2.16683 12.4999 2.16683C10.1735 2.16683 8.20304 2.97412 6.58846 4.5887C4.97388 6.20329 4.16659 8.17377 4.16659 10.5002C4.16659 12.8266 4.97388 14.797 6.58846 16.4116C8.20304 18.0262 10.1735 18.8335 12.4999 18.8335Z" fill="#F2FFFF"/>
</g>
<defs>
<filter id="filter0_d_1407_1899" x="-1.91675" y="0.0834961" width="28.8333" height="28.8335" filterUnits="userSpaceOnUse" color-interpolation-filters="sRGB">
<feFlood flood-opacity="0" result="BackgroundImageFix"/>
<feColorMatrix in="SourceAlpha" type="matrix" values="0 0 0 0 0 0 0 0 0 0 0 0 0 0 0 0 0 0 127 0" result="hardAlpha"/>
<feOffset dy="4"/>
<feGaussianBlur stdDeviation="2"/>
<feComposite in2="hardAlpha" operator="out"/>
<feColorMatrix type="matrix" values="0 0 0 0 0 0 0 0 0 0 0 0 0 0 0 0 0 0 0.25 0"/>
<feBlend mode="normal" in2="BackgroundImageFix" result="effect1_dropShadow_1407_1899"/>
<feBlend mode="normal" in="SourceGraphic" in2="effect1_dropShadow_1407_1899" result="shape"/>
</filter>
</defs>
</svg>
