<svg width="344" height="114" viewBox="0 0 344 114" fill="none" xmlns="http://www.w3.org/2000/svg">
<path d="M15.8684 64.8505H9.45352V36.49H0V31.0879H24.6467V36.49H15.8684V64.8505Z" fill="#F2FFFF"/>
<path d="M39.1646 31.0879L32.7497 31.0879C32.7497 31.0879 33.0873 46.2811 33.4249 56.4099C33.7626 66.5387 47.6052 65.5258 47.6052 65.5258C47.6052 65.5258 59.0845 65.1881 59.0845 56.4099V31.0879L53.3449 31.0879V54.0465C53.3449 54.0465 53.3449 59.4485 46.93 59.7861C40.5151 60.1238 39.5022 54.0465 39.5022 54.0465L39.1646 31.0879Z" fill="#F2FFFF"/>
<path d="M142.478 39.8662H136.063C136.063 39.8662 133.553 34.8018 130.661 34.8018C127.769 34.8018 125.565 36.9907 125.259 39.8662C124.874 43.4926 132.349 45.9435 132.349 45.9435C132.349 45.9435 139.75 47.3572 141.803 51.0079C143.677 54.3407 143.736 57.4998 141.803 60.799C139.716 64.3604 136.469 65.2761 132.349 65.5258C128.144 65.7806 124.427 65.1698 121.883 61.8119C120.372 59.8179 119.52 55.0594 119.52 55.0594H124.584C124.584 55.0594 128.118 61.4784 131.674 60.799C134.245 60.3079 136.164 58.9632 136.738 56.4099C137.602 52.5723 128.973 49.995 128.973 49.995C128.973 49.995 119.52 47.9692 119.52 41.892C119.52 35.8147 121.545 31.088 129.986 30.4127C138.427 29.7374 142.478 39.8662 142.478 39.8662Z" fill="#F2FFFF"/>
<path d="M158.009 65.5258H152.607V31.4256H159.697L170.163 57.4227L180.63 31.4256H188.733V65.5258H181.305V41.2167L172.864 65.5258H167.8L158.009 40.5415V65.5258Z" fill="#F2FFFF"/>
<path fill-rule="evenodd" clip-rule="evenodd" d="M69.5509 31.0879H88.1203C88.1203 31.0879 95.2105 33.4513 95.2105 41.892C95.2105 50.3326 86.4322 52.0207 86.4322 52.0207L94.1976 65.5258H88.1203L78.6668 52.0207H75.6282V65.5258H69.5509V31.0879ZM88.1203 41.892C88.1203 34.1266 75.6282 36.1523 75.6282 36.1523V47.6316C75.6282 47.6316 88.1203 49.6574 88.1203 41.892Z" fill="#F2FFFF"/>
<path fill-rule="evenodd" clip-rule="evenodd" d="M69.5509 31.0879H88.1203C88.1203 31.0879 95.2105 33.4513 95.2105 41.892C95.2105 50.3326 86.4322 52.0207 86.4322 52.0207L94.1976 65.5258H88.1203L78.6668 52.0207H75.6282V65.5258H69.5509V31.0879ZM88.1203 41.892C88.1203 34.1266 75.6282 36.1523 75.6282 36.1523V47.6316C75.6282 47.6316 88.1203 49.6574 88.1203 41.892Z" fill="#F2FFFF"/>
<path fill-rule="evenodd" clip-rule="evenodd" d="M69.5509 31.0879H88.1203C88.1203 31.0879 95.2105 33.4513 95.2105 41.892C95.2105 50.3326 86.4322 52.0207 86.4322 52.0207L94.1976 65.5258H88.1203L78.6668 52.0207H75.6282V65.5258H69.5509V31.0879ZM88.1203 41.892C88.1203 34.1266 75.6282 36.1523 75.6282 36.1523V47.6316C75.6282 47.6316 88.1203 49.6574 88.1203 41.892Z" fill="#F2FFFF"/>
<path fill-rule="evenodd" clip-rule="evenodd" d="M69.5509 31.0879H88.1203C88.1203 31.0879 95.2105 33.4513 95.2105 41.892C95.2105 50.3326 86.4322 52.0207 86.4322 52.0207L94.1976 65.5258H88.1203L78.6668 52.0207H75.6282V65.5258H69.5509V31.0879ZM88.1203 41.892C88.1203 34.1266 75.6282 36.1523 75.6282 36.1523V47.6316C75.6282 47.6316 88.1203 49.6574 88.1203 41.892Z" fill="#F2FFFF"/>
<path fill-rule="evenodd" clip-rule="evenodd" d="M17.2189 79.0308H35.7883C35.7883 79.0308 42.8785 81.3942 42.8785 89.8348C42.8785 98.2755 34.1002 99.9636 34.1002 99.9636L41.8656 113.469H35.7883L26.3348 99.9636H23.2962V113.469H17.2189V79.0308ZM35.7883 89.8348C35.7883 82.0694 23.2962 84.0952 23.2962 84.0952V95.5744C23.2962 95.5744 35.7883 97.6002 35.7883 89.8348Z" fill="#F2FFFF"/>
<path fill-rule="evenodd" clip-rule="evenodd" d="M49.9686 79.0308H68.538C68.538 79.0308 75.6282 81.3942 75.6282 89.8348C75.6282 98.2755 66.8499 99.9636 66.8499 99.9636L74.6153 113.469H68.538L59.0845 99.9636H56.0459V113.469H49.9686V79.0308ZM68.538 89.8348C68.538 82.0694 56.0459 84.0952 56.0459 84.0952V95.5744C56.0459 95.5744 68.538 97.6002 68.538 89.8348Z" fill="#F2FFFF"/>
<path fill-rule="evenodd" clip-rule="evenodd" d="M175.228 79.0308H193.797C193.797 79.0308 200.887 81.3942 200.887 89.8348C200.887 98.2755 192.109 99.9636 192.109 99.9636L199.874 113.469H193.797L184.344 99.9636H181.305V113.469H175.228V79.0308ZM193.797 89.8348C193.797 82.0694 181.305 84.0952 181.305 84.0952V95.5744C181.305 95.5744 193.797 97.6002 193.797 89.8348Z" fill="#F2FFFF"/>
<path d="M0 79.0308H6.41489V113.469H0V79.0308Z" fill="#F2FFFF"/>
<path d="M209.666 79.0308H216.08V113.469H209.666V79.0308Z" fill="#F2FFFF"/>
<path d="M158.009 113.469H151.594V85.1081H142.14V79.706H166.787V85.1081H158.009V113.469Z" fill="#F2FFFF"/>
<path d="M239.377 113.469H232.962V85.1081H223.508V79.706H248.155V85.1081H239.377V113.469Z" fill="#F2FFFF"/>
<path d="M135.388 87.8091H128.973C128.973 87.8091 126.463 82.7447 123.571 82.7447C120.679 82.7447 118.475 84.9335 118.169 87.8091C117.784 91.4355 125.259 93.8863 125.259 93.8863C125.259 93.8863 132.66 95.3001 134.713 98.9507C136.587 102.284 136.646 105.443 134.713 108.742C132.626 112.303 129.379 113.219 125.259 113.469C121.054 113.723 117.337 113.113 114.793 109.755C113.282 107.761 112.429 103.002 112.429 103.002H117.494C117.494 103.002 121.028 109.421 124.584 108.742C127.155 108.251 129.074 106.906 129.648 104.353C130.512 100.515 121.883 97.9378 121.883 97.9378C121.883 97.9378 112.429 95.9121 112.429 89.8348C112.429 83.7576 114.455 79.0308 122.896 78.3555C131.336 77.6803 135.388 87.8091 135.388 87.8091Z" fill="#F2FFFF"/>
<path fill-rule="evenodd" clip-rule="evenodd" d="M272.126 79.0308C262.71 78.7345 255.395 87.1685 255.583 96.5873C255.768 105.909 263.154 113.959 272.464 113.469C281.321 113.002 288.332 107.729 288.67 96.5873C289.008 85.4457 281.276 79.3187 272.126 79.0308ZM272.464 83.7575C265.915 83.6554 261.201 90.0532 261.66 96.5873C262.085 102.633 266.404 107.825 272.464 107.729C278.433 107.634 282.176 102.543 282.593 96.5873C283.044 90.137 278.929 83.8584 272.464 83.7575Z" fill="#F2FFFF"/>
<path d="M83.3936 79.0308H103.651V83.7575H89.4708V93.2111H101.625V97.9378H89.4708V108.067H103.651V113.469H83.3936V79.0308Z" fill="#F2FFFF"/>
<path d="M102.638 31.0879H109.053V65.5258H102.638V31.0879Z" fill="#F2FFFF"/>
<path d="M211.016 0.0259171C215.847 -0.376696 220.197 3.97283 219.794 8.80419C219.421 13.2794 215.491 16.6049 211.016 16.232C206.928 15.8913 203.929 12.8923 203.588 8.80419C203.215 4.32901 206.541 0.398848 211.016 0.0259171Z" fill="#84DF84"/>
<path d="M222.495 16.9072C224.859 16.232 227.897 18.5949 231.273 20.9587C234.65 23.3226 237.013 27.0364 236.675 27.7112C236.338 28.386 231.329 26.888 228.572 25.0102C225.303 22.7834 220.131 17.5825 222.495 16.9072Z" fill="#84DF84"/>
<path d="M210.341 18.2577L219.794 14.8814L226.547 31.0875C226.547 31.0875 232.624 32.0999 241.402 40.541C250.18 48.9821 250.18 58.7728 250.18 58.7728C250.18 58.7728 241.362 50.7322 234.65 47.2935C228.934 44.3657 219.119 41.8915 219.119 41.8915L210.341 18.2577Z" fill="#84DF84"/>
<path d="M214.392 31.4254C214.392 31.4254 204.903 30.0977 200.212 33.1135C194.657 36.685 192.624 41.7042 192.784 48.3067C193.024 58.1864 200.823 64.7678 210.678 65.4994C216.5 65.9315 219.803 64.8481 223.508 60.0974C225.919 57.0062 228.235 49.9686 228.235 49.9686C228.235 49.9686 224.521 56.0721 221.482 58.0716C218.443 60.0712 214.727 60.65 210.678 59.7859C204.199 58.4033 199.705 53.8999 199.199 47.2938C198.842 42.6309 200.333 39.5095 203.588 36.1521C206.794 32.8459 214.392 31.4254 214.392 31.4254Z" fill="#84DF84"/>
</svg>
