<svg width="428" height="169" viewBox="0 0 428 169" fill="none" xmlns="http://www.w3.org/2000/svg">
<path d="M23.5 96.0391H14V54.0391H0V46.0391H36.5V54.0391H23.5V96.0391Z" fill="black"/>
<path d="M58 46.0391L48.5 46.0391C48.5 46.0391 49 68.5391 49.5 83.5391C50 98.5391 70.5 97.0391 70.5 97.0391C70.5 97.0391 87.5 96.5391 87.5 83.5391V46.0391L79 46.0391V80.0391C79 80.0391 79 88.0391 69.5 88.5391C60 89.0391 58.5 80.0391 58.5 80.0391L58 46.0391Z" fill="black"/>
<path d="M211 59.0391H201.5C201.5 59.0391 197.782 51.5391 193.5 51.5391C189.218 51.5391 185.952 54.7806 185.5 59.0391C184.929 64.4095 196 68.0391 196 68.0391C196 68.0391 206.96 70.1328 210 75.5391C212.776 80.4748 212.862 85.1532 210 90.0391C206.91 95.3133 202.101 96.6693 196 97.0391C189.772 97.4165 184.268 96.512 180.5 91.5391C178.263 88.5862 177 81.5391 177 81.5391H184.5C184.5 81.5391 189.734 91.0452 195 90.0391C198.807 89.3118 201.649 87.3204 202.5 83.5391C203.779 77.856 191 74.0391 191 74.0391C191 74.0391 177 71.039 177 62.0391C177 53.0391 180 46.0391 192.5 45.0391C205 44.039 211 59.0391 211 59.0391Z" fill="black"/>
<path d="M234 97.0391H226V46.5391H236.5L252 85.0391L267.5 46.5391H279.5V97.0391H268.5V61.0391L256 97.0391H248.5L234 60.0391V97.0391Z" fill="black"/>
<path fill-rule="evenodd" clip-rule="evenodd" d="M103 46.0391H130.5C130.5 46.0391 141 49.5391 141 62.0391C141 74.5391 128 77.0391 128 77.0391L139.5 97.0391H130.5L116.5 77.0391H112V97.0391H103V46.0391ZM130.5 62.0391C130.5 50.5391 112 53.5391 112 53.5391V70.5391C112 70.5391 130.5 73.5391 130.5 62.0391Z" fill="black"/>
<path fill-rule="evenodd" clip-rule="evenodd" d="M103 46.0391H130.5C130.5 46.0391 141 49.5391 141 62.0391C141 74.5391 128 77.0391 128 77.0391L139.5 97.0391H130.5L116.5 77.0391H112V97.0391H103V46.0391ZM130.5 62.0391C130.5 50.5391 112 53.5391 112 53.5391V70.5391C112 70.5391 130.5 73.5391 130.5 62.0391Z" fill="black"/>
<path fill-rule="evenodd" clip-rule="evenodd" d="M103 46.0391H130.5C130.5 46.0391 141 49.5391 141 62.0391C141 74.5391 128 77.0391 128 77.0391L139.5 97.0391H130.5L116.5 77.0391H112V97.0391H103V46.0391ZM130.5 62.0391C130.5 50.5391 112 53.5391 112 53.5391V70.5391C112 70.5391 130.5 73.5391 130.5 62.0391Z" fill="black"/>
<path fill-rule="evenodd" clip-rule="evenodd" d="M103 46.0391H130.5C130.5 46.0391 141 49.5391 141 62.0391C141 74.5391 128 77.0391 128 77.0391L139.5 97.0391H130.5L116.5 77.0391H112V97.0391H103V46.0391ZM130.5 62.0391C130.5 50.5391 112 53.5391 112 53.5391V70.5391C112 70.5391 130.5 73.5391 130.5 62.0391Z" fill="black"/>
<path fill-rule="evenodd" clip-rule="evenodd" d="M25.5 117.039H53C53 117.039 63.5 120.539 63.5 133.039C63.5 145.539 50.5 148.039 50.5 148.039L62 168.039H53L39 148.039H34.5V168.039H25.5V117.039ZM53 133.039C53 121.539 34.5 124.539 34.5 124.539V141.539C34.5 141.539 53 144.539 53 133.039Z" fill="black"/>
<path fill-rule="evenodd" clip-rule="evenodd" d="M74 117.039H101.5C101.5 117.039 112 120.539 112 133.039C112 145.539 99 148.039 99 148.039L110.5 168.039H101.5L87.5 148.039H83V168.039H74V117.039ZM101.5 133.039C101.5 121.539 83 124.539 83 124.539V141.539C83 141.539 101.5 144.539 101.5 133.039Z" fill="black"/>
<path fill-rule="evenodd" clip-rule="evenodd" d="M259.5 117.039H287C287 117.039 297.5 120.539 297.5 133.039C297.5 145.539 284.5 148.039 284.5 148.039L296 168.039H287L273 148.039H268.5V168.039H259.5V117.039ZM287 133.039C287 121.539 268.5 124.539 268.5 124.539V141.539C268.5 141.539 287 144.539 287 133.039Z" fill="black"/>
<path d="M0 117.039H9.5V168.039H0V117.039Z" fill="black"/>
<path d="M310.5 117.039H320V168.039H310.5V117.039Z" fill="black"/>
<path d="M234 168.039H224.5V126.039H210.5V118.039H247V126.039H234V168.039Z" fill="black"/>
<path d="M354.5 168.039H345V126.039H331V118.039H367.5V126.039H354.5V168.039Z" fill="black"/>
<path d="M200.5 130.039H191C191 130.039 187.282 122.539 183 122.539C178.718 122.539 175.452 125.781 175 130.039C174.429 135.41 185.5 139.039 185.5 139.039C185.5 139.039 196.46 141.133 199.5 146.539C202.276 151.475 202.362 156.153 199.5 161.039C196.41 166.313 191.601 167.669 185.5 168.039C179.272 168.416 173.768 167.512 170 162.539C167.763 159.586 166.5 152.539 166.5 152.539H174C174 152.539 179.234 162.045 184.5 161.039C188.307 160.312 191.149 158.32 192 154.539C193.279 148.856 180.5 145.039 180.5 145.039C180.5 145.039 166.5 142.039 166.5 133.039C166.5 124.039 169.5 117.039 182 116.039C194.5 115.039 200.5 130.039 200.5 130.039Z" fill="black"/>
<path fill-rule="evenodd" clip-rule="evenodd" d="M403 117.039C389.056 116.6 378.223 129.09 378.5 143.039C378.775 156.843 389.712 168.765 403.5 168.039C416.617 167.349 427 159.539 427.5 143.039C428 126.539 416.55 117.465 403 117.039ZM403.5 124.039C393.801 123.888 386.82 133.362 387.5 143.039C388.129 151.993 394.525 159.681 403.5 159.539C412.34 159.399 417.883 151.858 418.5 143.039C419.168 133.487 413.075 124.188 403.5 124.039Z" fill="black"/>
<path d="M123.5 117.039H153.5V124.039H132.5V138.039H150.5V145.039H132.5V160.039H153.5V168.039H123.5V117.039Z" fill="black"/>
<path d="M152 46.0391H161.5V97.0391H152V46.0391Z" fill="black"/>
<path d="M312.501 0.0383813C319.656 -0.55786 326.097 5.88348 325.501 13.0384C324.949 19.6658 319.128 24.5907 312.501 24.0384C306.447 23.5339 302.005 19.0925 301.501 13.0384C300.949 6.41096 305.874 0.590666 312.501 0.0383813Z" fill="#84DF84"/>
<path d="M329.501 25.0384C333.001 24.0384 337.501 27.5377 342.501 31.0384C347.501 34.5391 351.001 40.0391 350.501 41.0384C350.001 42.0377 342.584 39.8193 338.501 37.0384C333.66 33.7406 326.001 26.0384 329.501 25.0384Z" fill="#84DF84"/>
<path d="M311.501 27.0384L325.501 22.0384L335.501 46.0384C335.501 46.0384 344.501 47.5377 357.501 60.0384C370.501 72.5391 370.501 87.0384 370.501 87.0384C370.501 87.0384 357.442 75.1308 347.501 70.0384C339.037 65.7025 324.501 62.0384 324.501 62.0384L311.501 27.0384Z" fill="#84DF84"/>
<path d="M317.501 46.5388C317.501 46.5388 303.448 44.5725 296.501 49.0388C288.274 54.328 285.263 61.761 285.501 71.5388C285.857 86.17 297.406 95.9165 312.001 97C320.622 97.64 325.514 96.0355 331.001 89C334.571 84.4221 338.001 74 338.001 74C338.001 74 332.501 83.0388 328.001 86C323.501 88.9612 317.998 89.8184 312.001 88.5388C302.405 86.4911 295.751 79.8219 295.001 70.0388C294.472 63.1334 296.68 58.5108 301.501 53.5388C306.249 48.6425 317.501 46.5388 317.501 46.5388Z" fill="#84DF84"/>
</svg>
